# Blender v2.59 (sub 0) OBJ File: 'fences.blend'
# www.blender.org
o fence_long
v 1.979360 -0.647292 -0.002722
v 0.869582 -0.609689 0.008937
v 0.899706 -0.676724 -0.015318
v 0.899706 -0.677402 -0.092046
v 0.869582 -0.611007 -0.140224
v 0.839457 -0.542140 -0.093300
v 0.839457 -0.541461 -0.016506
v 1.890527 -0.631138 0.097221
v 1.911400 -0.713727 0.043663
v 1.911400 -0.714636 -0.059298
v 1.890527 -0.632906 -0.102936
v 1.899674 -0.548787 -0.060794
v 1.899674 -0.547876 0.042255
v -0.104167 -0.593744 0.106554
v -0.097377 -0.685180 0.048381
v -0.097377 -0.686177 -0.064521
v -0.104167 -0.595683 -0.112928
v -0.110956 -0.502717 -0.066177
v -0.110956 -0.501719 0.046822
v -0.104167 -0.117228 -0.057626
v -0.108952 -0.214742 -0.115402
v -0.113739 -0.311246 -0.058865
v -0.113739 -0.310235 0.055640
v -0.108952 -0.212819 0.102298
v -0.104166 -0.116260 0.051987
v 1.920410 -0.033670 -0.058603
v 1.912664 -0.131804 -0.116608
v 1.904918 -0.228923 -0.059841
v 1.904918 -0.227907 0.055162
v 1.912664 -0.129872 0.102040
v 1.920410 -0.032698 0.051488
v 1.160758 -0.086001 -0.006629
v 1.119998 -0.154435 -0.034734
v 1.079238 -0.222368 -0.006166
v 1.079238 -0.221670 0.072824
v 1.119998 -0.153108 0.115444
v 1.160758 -0.085333 0.068987
v 2.019856 -0.142248 -0.007183
v -1.980531 -0.684147 -0.002397
v -1.043812 -0.636862 0.120905
v -0.994752 -0.564906 0.071503
v -0.994752 -0.565615 -0.008719
v -1.043812 -0.638282 -0.039841
v -1.092785 -0.709230 -0.008876
v -1.092785 -0.708470 0.077145
v -1.894247 -0.675308 0.106857
v -1.889779 -0.574986 0.055452
v -1.889779 -0.575949 -0.053666
v -1.894247 -0.677239 -0.111791
v -1.898716 -0.776354 -0.056577
v -1.898716 -0.775320 0.060429
v -0.117645 -0.593163 0.105658
v -0.112859 -0.493806 0.054499
v -0.112859 -0.494765 -0.054146
v -0.117645 -0.595086 -0.112042
v -0.122431 -0.693236 -0.057057
v -0.122431 -0.692207 0.059442
v -1.992891 -0.277838 -0.005986
v -0.897788 -0.293409 -0.006163
v -0.936093 -0.227691 0.018850
v -0.973787 -0.170567 -0.008109
v -0.973787 -0.171282 -0.089117
v -0.936093 -0.229008 -0.130311
v -0.897788 -0.294165 -0.091741
v -1.892728 -0.353860 0.049008
v -1.900960 -0.266574 0.094001
v -1.909192 -0.188287 0.043767
v -1.909192 -0.189247 -0.064937
v -1.900960 -0.268342 -0.106156
v -1.892728 -0.354874 -0.065829
v -0.111414 -0.295909 0.054040
v -0.122859 -0.201838 0.103093
v -0.134304 -0.116841 0.048384
v -0.134304 -0.117894 -0.070815
v -0.122859 -0.203776 -0.116390
v -0.111414 -0.297021 -0.071884
v 1.650160 -0.976655 0.114612
v 1.613967 -0.977666 0.000102
v 1.657110 -0.978586 -0.104051
v 1.761266 -0.978967 -0.147192
v 1.865423 -0.978586 -0.104051
v 1.923291 -0.977666 0.000102
v 1.865423 -0.976746 0.104254
v 1.761266 -0.976365 0.147395
v 1.621293 0.078002 0.116616
v 1.568807 0.074039 -0.009091
v 1.621625 0.079875 -0.134885
v 1.745428 0.050497 -0.186709
v 1.872345 0.060387 -0.134712
v 1.925610 0.073954 -0.009090
v 1.871046 0.046622 0.116893
v 1.748375 0.089919 0.168595
v 1.619700 0.111156 0.120592
v 1.567784 0.136003 -0.009638
v 1.621457 0.130495 -0.139601
v 1.748089 0.083215 -0.193035
v 1.879261 0.092775 -0.139267
v 1.934289 0.106237 -0.009375
v 1.877963 0.079085 0.120875
v 1.751036 0.122744 0.174342
v 1.724289 0.393027 -0.012480
v 1.731394 0.396183 0.024760
v 1.731394 0.395534 -0.048627
v 1.767854 0.391253 -0.063789
v 1.804314 0.387240 -0.048554
v 1.819416 0.385847 -0.011845
v 1.802862 0.375122 0.024946
v 1.767269 0.387026 0.040041
v 1.773013 0.437063 -0.012297
v 1.648180 -0.359393 0.100867
v 1.601084 -0.297351 0.019531
v 1.644969 -0.278179 -0.086325
v 1.746946 -0.330939 -0.150918
v 1.841426 -0.383741 -0.121748
v 1.883651 -0.429193 -0.027720
v 1.829666 -0.454142 0.071202
v 1.749265 -0.407728 0.134717
v -1.621277 -0.412345 0.089001
v -1.596014 -0.453600 -0.004158
v -1.621032 -0.422678 -0.115043
v -1.717426 -0.376046 -0.156909
v -1.827897 -0.325786 -0.113543
v -1.864539 -0.279120 0.007115
v -1.827225 -0.303813 0.116931
v -1.722914 -0.367487 0.132922
v -1.730317 0.371607 -0.025129
v -1.695177 0.321837 0.014421
v -1.677234 0.314333 -0.021049
v -1.690072 0.326639 -0.058816
v -1.725583 0.325710 -0.076584
v -1.763257 0.324935 -0.064030
v -1.781026 0.324769 -0.028508
v -1.732970 0.326239 0.026941
v -1.762381 0.321796 0.003224
v -1.608029 0.122342 0.128826
v -1.547381 0.078065 0.005390
v -1.589962 0.105171 -0.129989
v -1.716691 0.092309 -0.192081
v -1.851084 0.083623 -0.146787
v -1.911510 0.131520 -0.023575
v -1.866924 0.137057 0.109777
v -1.742546 0.111630 0.174246
v -1.613994 0.089545 0.126297
v -1.555404 0.045651 0.006980
v -1.596521 0.072939 -0.124020
v -1.719122 0.059952 -0.184039
v -1.849142 0.050908 -0.140193
v -1.908587 0.080890 -0.020012
v -1.866151 0.075088 0.109654
v -1.744138 0.078476 0.170269
v -1.622661 -0.972905 0.111829
v -1.569817 -0.973838 0.006239
v -1.595463 -0.974917 -0.115890
v -1.712713 -0.975294 -0.158632
v -1.824746 -0.974965 -0.121332
v -1.877589 -0.974032 -0.015741
v -1.840288 -0.973043 0.096287
v -1.733088 -0.972461 0.162094
v -0.250274 -0.414007 -0.000910
v -0.185667 -0.446724 0.078239
v -0.092346 -0.412013 0.125195
v -0.006428 -0.366899 0.079087
v 0.016532 -0.323610 -0.015933
v -0.049829 -0.286902 -0.116112
v -0.149968 -0.315659 -0.153851
v -0.222673 -0.375256 -0.101899
v -0.119223 0.085668 -0.009046
v -0.290203 0.126377 -0.006748
v -0.238773 0.108624 0.106329
v -0.114370 0.106971 0.159195
v 0.006155 0.097658 0.108153
v 0.054431 0.091768 -0.012040
v -0.000416 0.080513 -0.129627
v -0.231914 0.095984 -0.127519
v -0.117967 0.071770 -0.174491
v -0.309092 0.114254 -0.005618
v -0.252124 0.087384 0.125595
v -0.114830 0.094150 0.181390
v 0.018528 0.077516 0.121475
v 0.071302 0.067579 -0.016136
v 0.013627 0.060543 -0.146744
v -0.123258 0.058902 -0.199823
v -0.255383 0.077121 -0.143151
v -0.297176 0.090235 -0.008392
v -0.244060 0.068134 0.113385
v -0.116640 0.072713 0.165316
v 0.007289 0.057967 0.109608
v 0.056339 0.049147 -0.018279
v 0.001911 0.029017 -0.140813
v -0.125701 0.021167 -0.190970
v -0.248594 0.051088 -0.136176
v -0.275999 -0.977548 0.013429
v -0.227855 -0.976579 0.123222
v -0.115852 -0.976055 0.182470
v -0.006376 -0.976619 0.118673
v 0.037219 -0.977605 0.006996
v -0.010925 -0.978575 -0.102797
v -0.122607 -0.978960 -0.146390
v -0.243569 -0.978598 -0.105410
vt 0.808677 0.990628
vt 0.851358 0.878404
vt 0.893624 0.878404
vt 0.851358 0.478054
vt 0.893624 0.503119
vt 0.938812 0.878404
vt 0.938812 0.528734
vt 0.986740 0.878404
vt 0.986740 0.540540
vt 0.682037 0.878404
vt 0.727236 0.878404
vt 0.682037 0.528501
vt 0.727236 0.502965
vt 0.769517 0.878404
vt 0.769517 0.477977
vt 0.851358 0.140062
vt 0.893624 0.140062
vt 0.938812 0.140062
vt 0.986740 0.140062
vt 0.682037 0.140062
vt 0.727236 0.140062
vt 0.769517 0.140062
vt 0.854455 0.468009
vt 0.854455 0.878404
vt 0.769050 0.878404
vt 0.769050 0.467175
vt 0.897891 0.502937
vt 0.897891 0.878404
vt 0.941032 0.538551
vt 0.941032 0.878404
vt 0.986740 0.556091
vt 0.722378 0.501280
vt 0.722378 0.878404
vt 0.678470 0.878404
vt 0.678470 0.536081
vt 0.854455 0.140062
vt 0.769050 0.140062
vt 0.813238 0.008263
vt 0.897891 0.140062
vt 0.941032 0.140062
vt 0.722378 0.140062
vt 0.678470 0.140062
vt 0.632908 0.140062
vt 0.632908 0.552774
vt 0.632908 0.878404
vt 0.632908 0.540226
vt 0.013995 0.664869
vt 0.086738 0.664869
vt 0.086738 0.684513
vt 0.013995 0.684513
vt 0.596317 0.664869
vt 0.596317 0.684513
vt 0.524724 0.684513
vt 0.524724 0.664869
vt 0.445267 0.664869
vt 0.445267 0.684513
vt 0.373646 0.664869
vt 0.373646 0.684513
vt 0.301894 0.664869
vt 0.301894 0.684513
vt 0.233911 0.684513
vt 0.232233 0.664869
vt 0.161914 0.664869
vt 0.161914 0.684513
vt 0.657564 0.008646
vt 0.687234 0.019883
vt 0.661582 0.042541
vt 0.630814 0.027358
vt 0.625179 0.055004
vt 0.643918 0.079970
vt 0.668339 0.081714
vt 0.692174 0.070082
vt 0.698431 0.045717
vt 0.086738 0.817848
vt 0.013995 0.817848
vt 0.596317 0.817848
vt 0.524724 0.817848
vt 0.445267 0.817848
vt 0.373646 0.817848
vt 0.301894 0.817848
vt 0.221143 0.817848
vt 0.161914 0.817848
vt 0.086738 0.014174
vt 0.086738 0.420207
vt 0.013995 0.463355
vt 0.013995 0.014174
vt 0.596317 0.014174
vt 0.596317 0.465188
vt 0.524724 0.483518
vt 0.524724 0.014174
vt 0.445267 0.449739
vt 0.445267 0.014174
vt 0.373646 0.416766
vt 0.373646 0.014174
vt 0.301894 0.385871
vt 0.301894 0.014174
vt 0.232938 0.363673
vt 0.231533 0.014174
vt 0.161914 0.391970
vt 0.161914 0.014174
vt 0.817670 0.024534
vt 0.836003 0.066829
vt 0.775675 0.061629
vt 0.825758 0.106719
vt 0.786737 0.125763
vt 0.746756 0.122907
vt 0.716077 0.082033
vt 0.725301 0.036773
vt 0.769096 0.006137
vn 0.998810 -0.045656 0.016297
vn 0.406934 0.781304 0.473190
vn 0.287393 0.011017 0.957732
vn 0.033753 0.867641 0.495987
vn 0.007691 0.006775 0.999939
vn 0.378979 -0.776574 0.503220
vn -0.021088 -0.860897 0.508286
vn 0.406384 -0.775170 -0.483627
vn -0.008515 -0.869625 -0.493606
vn 0.362316 0.003754 -0.932035
vn 0.004547 -0.012238 -0.999908
vn 0.424818 0.774621 -0.468429
vn 0.017853 0.858638 -0.512223
vn 0.074496 0.861263 0.502609
vn 0.089724 0.046358 0.994873
vn 0.048799 -0.832057 0.552507
vn -0.009461 -0.874844 -0.484237
vn -0.020325 0.012909 -0.999695
vn 0.019166 0.876553 -0.480880
vn -0.059877 0.859767 -0.507126
vn 0.004822 0.837306 -0.546678
vn -0.030763 0.867611 0.496231
vn -0.035371 0.866207 0.498398
vn -0.019501 0.008271 -0.999756
vn 0.062380 -0.041414 -0.997162
vn 0.036164 -0.861629 -0.506180
vn 0.088229 -0.862148 -0.498886
vn 0.030488 -0.850703 0.524705
vn 0.054842 -0.868465 0.492630
vn -0.000732 0.022217 0.999725
vn -0.004700 -0.011078 0.999908
vn 0.346202 0.803400 -0.484390
vn 0.367779 0.807245 0.461562
vn 0.995819 -0.090793 -0.008789
vn 0.297678 0.005585 -0.954619
vn 0.295480 -0.818140 -0.493210
vn 0.321970 -0.811701 0.487289
vn 0.359478 0.009308 0.933073
vn -0.999908 -0.008667 -0.008301
vn -0.373363 -0.790918 0.484756
vn -0.404645 0.026643 0.914060
vn 0.039491 -0.848476 0.527726
vn -0.000122 0.022034 0.999756
vn -0.402417 0.798486 0.447676
vn -0.038270 0.865291 0.499771
vn -0.386364 0.786431 -0.481887
vn -0.052980 0.857356 -0.511917
vn -0.349895 -0.001709 -0.936766
vn 0.002655 0.001434 -0.999969
vn -0.353648 -0.802515 -0.480453
vn 0.059358 -0.861446 -0.504288
vn 0.027467 -0.852718 0.521622
vn 0.006104 0.051698 0.998627
vn -0.057955 0.882077 0.467483
vn -0.096957 0.857082 -0.505936
vn -0.074526 0.047487 -0.996063
vn -0.016907 -0.837672 -0.545885
vn -0.996551 -0.082156 0.009125
vn -0.286691 -0.806024 0.517747
vn -0.322520 0.025910 0.946196
vn 0.005615 -0.848048 0.529862
vn -0.013642 0.042665 0.998993
vn -0.389477 0.792199 0.469771
vn -0.027375 0.872585 0.487625
vn -0.409528 0.779107 -0.474563
vn -0.038881 0.860866 -0.507309
vn -0.378002 -0.003845 -0.925779
vn -0.004913 0.030946 -0.999481
vn -0.307993 -0.819300 -0.483596
vn 0.026246 -0.849361 -0.527146
vn -0.046052 -0.845424 0.532060
vn -0.095676 -0.011078 0.995331
vn -0.094699 0.840754 0.533036
vn -0.040437 0.864742 -0.500565
vn 0.010956 0.002319 -0.999908
vn 0.011658 -0.871395 -0.490402
vn -0.997833 -0.065615 -0.004425
vn -0.699088 -0.076632 0.710868
vn -0.693625 0.165716 0.700980
vn -0.969817 0.243721 0.005554
vn -0.676229 0.219672 -0.703146
vn -0.728080 -0.094058 -0.678976
vn -0.063601 -0.134770 -0.988830
vn 0.013337 0.074740 -0.997101
vn 0.687124 -0.160894 -0.708457
vn 0.705741 0.058901 -0.705985
vn 0.982208 -0.187689 0.002014
vn 0.996216 0.085513 0.013825
vn 0.708121 0.026276 0.705588
vn 0.699728 -0.158116 0.696646
vn -0.000702 -0.132267 0.991211
vn 0.029054 0.168767 0.985198
vn -0.787317 0.616474 0.006653
vn -0.546190 0.632679 0.548936
vn 0.103000 0.994354 0.025147
vn -0.543443 0.627979 -0.557024
vn 0.063356 0.553514 -0.830409
vn 0.611103 0.516892 -0.599414
vn 0.850765 0.522019 0.060640
vn 0.637074 0.465102 0.614612
vn 0.107883 0.566057 0.817255
vn -0.669271 0.003143 0.742973
vn -0.682852 -0.032350 0.729789
vn -0.998230 -0.053407 0.025330
vn -0.999908 -0.010041 -0.006897
vn -0.746483 -0.073092 -0.661336
vn -0.732292 -0.003265 -0.680960
vn -0.079348 -0.049196 -0.995605
vn -0.061159 -0.003082 -0.998108
vn 0.666768 -0.032014 -0.744530
vn 0.673574 0.014740 -0.738945
vn 0.999878 -0.013825 -0.002686
vn 0.996887 0.069185 0.037294
vn 0.722343 0.005463 0.691488
vn 0.714957 0.076266 0.694968
vn 0.086917 -0.025575 0.995880
vn 0.122868 0.041902 0.991516
vn 0.717124 -0.016785 0.696738
vn 0.642598 -0.129704 0.755120
vn -0.043977 -0.076876 0.996063
vn 0.020173 -0.021363 0.999542
vn 0.026276 0.026582 0.999298
vn 0.722434 0.037294 0.690420
vn 0.997772 -0.001373 0.066622
vn 0.986908 -0.140904 0.078158
vn 0.995911 0.040529 0.080538
vn 0.752434 -0.015076 -0.658467
vn 0.742759 -0.176397 -0.645863
vn 0.768670 0.032624 -0.638783
vn 0.029359 -0.026093 -0.999207
vn 0.050874 -0.156682 -0.986328
vn 0.018097 0.009003 -0.999786
vn -0.704459 -0.042116 -0.708457
vn -0.692434 -0.132725 -0.709128
vn -0.692007 0.011048 -0.721793
vn -0.998260 -0.058016 -0.009766
vn -0.995666 -0.084719 -0.037843
vn -0.999268 0.012452 -0.035890
vn -0.705527 -0.039338 0.707572
vn -0.744926 -0.057649 0.664602
vn -0.729484 0.011353 0.683889
vn 0.661519 0.239296 0.710715
vn 0.563494 0.642018 0.519822
vn -0.078921 0.660237 0.746879
vn -0.060396 0.220954 0.973388
vn 0.994995 0.071505 0.069521
vn 0.825983 0.561113 0.053224
vn 0.761406 0.138951 -0.633168
vn 0.625904 0.620777 -0.472030
vn 0.069826 0.094394 -0.993072
vn 0.033326 0.585437 -0.810022
vn -0.641133 0.103519 -0.760399
vn -0.508621 0.581988 -0.634449
vn -0.959563 0.267098 -0.088565
vn -0.770745 0.634877 -0.053468
vn -0.712973 0.301553 0.632984
vn -0.589648 0.622730 0.514267
vn -0.008087 0.999634 0.025452
vn -0.992401 -0.022980 0.120762
vn -0.951048 -0.306681 0.037965
vn -0.747276 -0.211066 -0.630055
vn -0.761986 -0.038392 -0.646443
vn -0.771477 0.017335 -0.635975
vn -0.987121 0.063967 0.146611
vn -0.676778 0.016938 0.735954
vn -0.667501 -0.352580 0.655812
vn -0.683920 0.098972 0.722800
vn 0.036195 0.000092 0.999329
vn -0.007782 -0.405805 0.913907
vn -0.009461 0.098880 0.995025
vn 0.769036 -0.014588 0.638997
vn 0.658345 -0.400800 0.637104
vn 0.761193 0.050813 0.646504
vn 0.993896 -0.041475 -0.102084
vn 0.925260 -0.375927 -0.050569
vn 0.996124 0.031159 -0.081942
vn 0.649495 -0.077548 -0.756371
vn 0.650716 -0.265694 -0.711295
vn 0.667684 0.015992 -0.744224
vn -0.065554 -0.061617 -0.995941
vn -0.043916 -0.195166 -0.979766
vn -0.029267 -0.000855 -0.999542
vn -0.951811 0.306101 0.018738
vn -0.250710 0.967559 -0.030946
vn -0.086886 0.929380 -0.358684
vn -0.682638 0.262673 -0.681875
vn -0.677725 0.092685 0.729423
vn -0.206854 0.933683 0.292276
vn 0.024201 0.132237 0.990905
vn 0.045656 0.940184 0.337565
vn 0.725639 0.018525 0.687796
vn 0.376659 0.891415 0.251869
vn 0.998566 0.043977 -0.029878
vn 0.492050 0.869564 -0.040834
vn 0.693075 0.183020 -0.697226
vn 0.279916 0.897916 -0.339610
vn -0.007233 0.268166 -0.963317
vn 0.062105 0.912595 -0.404065
vn 0.077639 0.993500 -0.082888
usemtl fence_prop_fence1_col.png
s 1
f 1/1/1 13/2/2 8/3/3
f 13/2/2 7/4/4 2/5/5 8/3/3
f 1/1/1 8/3/3 9/6/6
f 8/3/3 2/5/5 3/7/7 9/6/6
f 1/1/1 9/6/6 10/8/8
f 9/6/6 3/7/7 4/9/9 10/8/8
f 1/1/1 10/10/8 11/11/10
f 10/10/8 4/12/9 5/13/11 11/11/10
f 1/1/1 11/11/10 12/14/12
f 11/11/10 5/13/11 6/15/13 12/14/12
f 1/1/1 12/14/12 13/2/2
f 12/14/12 6/15/13 7/4/4 13/2/2
f 7/4/4 19/16/14 14/17/15 2/5/5
f 2/5/5 14/17/15 15/18/16 3/7/7
f 3/7/7 15/18/16 16/19/17 4/9/9
f 4/12/9 16/20/17 17/21/18 5/13/11
f 5/13/11 17/21/18 18/22/19 6/15/13
f 19/16/14 7/4/4 6/15/13 18/22/19
f 32/23/20 20/24/21 25/25/22 37/26/23
f 33/27/24 21/28/25 20/24/21 32/23/20
f 34/29/26 22/30/27 21/28/25 33/27/24
f 35/31/28 23/8/29 22/30/27 34/29/26
f 36/32/30 24/33/31 23/34/29 35/35/28
f 37/26/23 25/25/22 24/33/31 36/32/30
f 26/36/32 32/23/20 37/26/23 31/37/33
f 31/37/33 38/38/34 26/36/32
f 27/39/35 33/27/24 32/23/20 26/36/32
f 38/38/34 27/39/35 26/36/32
f 28/40/36 34/29/26 33/27/24 27/39/35
f 38/38/34 28/40/36 27/39/35
f 29/19/37 35/31/28 34/29/26 28/40/36
f 38/38/34 29/19/37 28/40/36
f 30/41/38 36/32/30 35/35/28 29/42/37
f 38/38/34 30/41/38 29/42/37
f 31/37/33 37/26/23 36/32/30 30/41/38
f 38/38/34 31/37/33 30/41/38
f 39/38/39 51/37/40 46/41/41
f 51/37/40 45/26/42 40/32/43 46/41/41
f 39/38/39 46/41/41 47/42/44
f 46/41/41 40/32/43 41/35/45 47/42/44
f 39/38/39 47/42/44 48/43/46
f 47/42/44 41/35/45 42/44/47 48/43/46
f 39/38/39 48/40/46 49/39/48
f 48/40/46 42/29/47 43/27/49 49/39/48
f 39/38/39 49/39/48 50/36/50
f 49/39/48 43/27/49 44/23/51 50/36/50
f 39/38/39 50/36/50 51/37/40
f 50/36/50 44/23/51 45/26/42 51/37/40
f 45/26/42 57/25/52 52/33/53 40/32/43
f 40/32/43 52/33/53 53/34/54 41/35/45
f 41/35/45 53/34/54 54/45/55 42/44/47
f 42/29/47 54/30/55 55/28/56 43/27/49
f 43/27/49 55/28/56 56/24/57 44/23/51
f 57/25/52 45/26/42 44/23/51 56/24/57
f 58/1/58 65/2/59 66/3/60
f 65/2/59 59/4/61 60/5/62 66/3/60
f 58/1/58 66/3/60 67/6/63
f 66/3/60 60/5/62 61/7/64 67/6/63
f 58/1/58 67/45/63 68/10/65
f 67/45/63 61/46/64 62/12/66 68/10/65
f 58/1/58 68/10/65 69/11/67
f 68/10/65 62/12/66 63/13/68 69/11/67
f 58/1/58 69/11/67 70/14/69
f 69/11/67 63/13/68 64/15/70 70/14/69
f 58/1/58 70/14/69 65/2/59
f 70/14/69 64/15/70 59/4/61 65/2/59
f 59/4/61 71/16/71 72/17/72 60/5/62
f 60/5/62 72/17/72 73/18/73 61/7/64
f 61/46/64 73/43/73 74/20/74 62/12/66
f 62/12/66 74/20/74 75/21/75 63/13/68
f 76/22/76 64/15/70 63/13/68 75/21/75
f 64/15/70 76/22/76 71/16/71 59/4/61
f 86/47/77 85/48/78 93/49/79 94/50/80
f 86/51/77 94/52/80 95/53/81 87/54/82
f 88/55/83 87/54/82 95/53/81 96/56/84
f 89/57/85 88/55/83 96/56/84 97/58/86
f 90/59/87 89/57/85 97/58/86 98/60/88
f 90/59/87 98/60/88 99/61/89 91/62/90
f 92/63/91 91/62/90 99/61/89 100/64/92
f 85/48/78 92/63/91 100/64/92 93/49/79
f 101/65/93 102/66/94 109/67/95
f 101/65/93 109/67/95 103/68/96
f 104/69/97 103/68/96 109/67/95
f 105/70/98 104/69/97 109/67/95
f 106/71/99 105/70/98 109/67/95
f 106/71/99 109/67/95 107/72/100
f 108/73/101 107/72/100 109/67/95
f 102/66/94 108/73/101 109/67/95
f 93/49/79 102/74/94 101/75/93 94/50/80
f 95/53/81 94/52/80 101/76/93 103/77/96
f 95/53/81 103/77/96 104/78/97 96/56/84
f 96/56/84 104/78/97 105/79/98 97/58/86
f 97/58/86 105/79/98 106/80/99 98/60/88
f 99/61/89 98/60/88 106/80/99 107/81/100
f 99/61/89 107/81/100 108/82/101 100/64/92
f 100/64/92 108/82/101 102/74/94 93/49/79
f 77/83/102 110/84/103 111/85/104 78/86/105
f 110/84/103 85/48/78 86/47/77 111/85/104
f 78/87/105 111/88/104 112/89/106 79/90/107
f 111/88/104 86/51/77 87/54/82 112/89/106
f 79/90/107 112/89/106 113/91/108 80/92/109
f 112/89/106 87/54/82 88/55/83 113/91/108
f 80/92/109 113/91/108 114/93/110 81/94/111
f 113/91/108 88/55/83 89/57/85 114/93/110
f 81/94/111 114/93/110 115/95/112 82/96/113
f 114/93/110 89/57/85 90/59/87 115/95/112
f 82/96/113 115/95/112 116/97/114 83/98/115
f 115/95/112 90/59/87 91/62/90 116/97/114
f 83/98/115 116/97/114 117/99/116 84/100/117
f 116/97/114 91/62/90 92/63/91 117/99/116
f 110/84/103 77/83/102 84/100/117 117/99/116
f 117/99/116 92/63/91 85/48/78 110/84/103
f 118/99/118 143/63/119 150/48/120 125/84/121
f 125/84/121 158/83/122 151/100/123 118/99/118
f 119/97/124 144/62/125 143/63/119 118/99/118
f 152/98/126 119/97/124 118/99/118 151/100/123
f 120/95/127 145/59/128 144/62/125 119/97/124
f 153/96/129 120/95/127 119/97/124 152/98/126
f 121/93/130 146/57/131 145/59/128 120/95/127
f 154/94/132 121/93/130 120/95/127 153/96/129
f 122/91/133 147/55/134 146/57/131 121/93/130
f 155/92/135 122/91/133 121/93/130 154/94/132
f 123/89/136 148/54/137 147/55/134 122/91/133
f 156/90/138 123/89/136 122/91/133 155/92/135
f 124/88/139 149/51/140 148/54/137 123/89/136
f 157/87/141 124/88/139 123/89/136 156/90/138
f 125/84/121 150/48/120 149/47/140 124/85/139
f 158/83/122 125/84/121 124/85/139 157/86/141
f 135/64/142 127/82/143 133/74/144 142/49/145
f 136/61/146 128/81/147 127/82/143 135/64/142
f 136/61/146 137/60/148 129/80/149 128/81/147
f 138/58/150 130/79/151 129/80/149 137/60/148
f 139/56/152 131/78/153 130/79/151 138/58/150
f 140/53/154 132/77/155 131/78/153 139/56/152
f 140/53/154 141/52/156 134/76/157 132/77/155
f 142/49/145 133/74/144 134/75/157 141/50/156
f 133/66/144 127/73/143 126/67/158
f 127/73/143 128/72/147 126/67/158
f 129/71/149 126/67/158 128/72/147
f 129/71/149 130/70/151 126/67/158
f 130/70/151 131/69/153 126/67/158
f 131/69/153 132/68/155 126/67/158
f 134/65/157 126/67/158 132/68/155
f 134/65/157 133/66/144 126/67/158
f 150/48/120 143/63/119 135/64/142 142/49/145
f 143/63/119 144/62/125 136/61/146 135/64/142
f 145/59/128 137/60/148 136/61/146 144/62/125
f 145/59/128 146/57/131 138/58/150 137/60/148
f 146/57/131 147/55/134 139/56/152 138/58/150
f 147/55/134 148/54/137 140/53/154 139/56/152
f 149/51/140 141/52/156 140/53/154 148/54/137
f 149/47/140 150/48/120 142/49/145 141/50/156
f 159/99/159 184/63/160 191/48/161 166/84/162
f 166/84/162 199/83/163 192/100/164 159/99/159
f 160/97/165 185/62/166 184/63/160 159/99/159
f 193/98/167 160/97/165 159/99/159 192/100/164
f 161/95/168 186/59/169 185/62/166 160/97/165
f 194/96/170 161/95/168 160/97/165 193/98/167
f 162/93/171 187/57/172 186/59/169 161/95/168
f 195/94/173 162/93/171 161/95/168 194/96/170
f 163/91/174 188/55/175 187/57/172 162/93/171
f 196/92/176 163/91/174 162/93/171 195/94/173
f 164/89/177 189/54/178 188/55/175 163/91/174
f 197/90/179 164/89/177 163/91/174 196/92/176
f 165/88/180 190/51/181 189/54/178 164/89/177
f 198/87/182 165/88/180 164/89/177 197/90/179
f 166/84/162 191/48/161 190/47/181 165/85/180
f 199/83/163 166/84/162 165/85/180 198/86/182
f 176/64/183 168/82/184 174/74/185 183/49/186
f 177/61/187 169/81/188 168/82/184 176/64/183
f 177/61/187 178/60/189 170/80/190 169/81/188
f 179/58/191 171/79/192 170/80/190 178/60/189
f 180/56/193 172/78/194 171/79/192 179/58/191
f 181/53/195 173/77/196 172/78/194 180/56/193
f 181/53/195 182/52/197 175/76/198 173/77/196
f 183/49/186 174/74/185 175/75/198 182/50/197
f 174/101/185 168/102/184 167/103/199
f 168/102/184 169/104/188 167/103/199
f 170/105/190 167/103/199 169/104/188
f 170/105/190 171/106/192 167/103/199
f 171/106/192 172/107/194 167/103/199
f 172/107/194 173/108/196 167/103/199
f 175/109/198 167/103/199 173/108/196
f 175/109/198 174/101/185 167/103/199
f 191/48/161 184/63/160 176/64/183 183/49/186
f 184/63/160 185/62/166 177/61/187 176/64/183
f 186/59/169 178/60/189 177/61/187 185/62/166
f 186/59/169 187/57/172 179/58/191 178/60/189
f 187/57/172 188/55/175 180/56/193 179/58/191
f 188/55/175 189/54/178 181/53/195 180/56/193
f 190/51/181 182/52/197 181/53/195 189/54/178
f 190/47/181 191/48/161 183/49/186 182/50/197
