<?xml version="1.0" encoding="iso-8859-1"?>
<!-- Generator: Adobe Illustrator 19.0.0, SVG Export Plug-In . SVG Version: 6.00 Build 0)  -->
<svg version="1.1" id="Layer_1" xmlns="http://www.w3.org/2000/svg" xmlns:xlink="http://www.w3.org/1999/xlink" x="0px" y="0px"
	 viewBox="0 0 423.997 423.997" style="enable-background:new 0 0 423.997 423.997;" xml:space="preserve">
<g>
	<path style="fill:#4D4D4D;" d="M329.513,334.607v89.39H94.484v-89.39c0-39.62,28.4-72.6,65.95-79.7c4.91-0.93,9.99-1.42,15.17-1.42
		h72.79c5.18,0,10.26,0.49,15.17,1.42C301.114,262.007,329.513,294.987,329.513,334.607z"/>
	<rect x="209.499" y="229.39" style="fill:#333333;" width="5" height="194.607"/>
	<g>
		<rect x="132.484" y="330.15" style="fill:#333333;" width="5" height="93.847"/>
		<rect x="286.513" y="330.15" style="fill:#333333;" width="5" height="93.847"/>
	</g>
	<path style="fill:#4D4D4D;" d="M255.564,230.82v29.77c0,12.02-4.87,22.92-12.76,30.8c-7.88,7.88-18.78,12.76-30.81,12.76
		c-24.06,0-43.56-19.5-43.56-43.56v-29.77L255.564,230.82L255.564,230.82z"/>
	<g>
		<g>
			<circle style="fill:#E5B591;" cx="131.424" cy="140" r="27.89"/>
			<circle style="fill:#E5B591;" cx="292.56" cy="140" r="27.89"/>
		</g>
	</g>
	<path style="fill:#FFD3AE;" d="M300.495,88.5v74c0,30.35-15.28,57.13-38.56,73.07c-0.19,0.14-0.39,0.27-0.58,0.4
		c-14.1,9.49-31.08,15.03-49.36,15.03s-35.26-5.54-49.36-15.03c-0.19-0.13-0.39-0.26-0.58-0.4c-23.28-15.94-38.56-42.72-38.56-73.07
		v-74c0-26.732,52.569-41.595,100.543-36.461C263.786,56.292,300.495,77.426,300.495,88.5z"/>
	<g>
		<path style="fill:#E5B591;" d="M164.861,139.333h35.044c6.522,0,11.81,5.287,11.81,11.81v21.123c0,5.092,4.128,9.22,9.22,9.22
			h6.748l-2.943,1.044c-7.666,2.72-16.214,0.773-21.946-4.999L164.861,139.333z"/>
	</g>
	<path style="fill:#FFFFFF;" d="M237.228,193.997c0,2.98-0.52,5.83-1.48,8.49c-0.45,1.28-1.01,2.51-1.65,3.68
		c-4.3,7.78-12.58,13.05-22.1,13.05c-9.53,0-17.81-5.27-22.11-13.05c-0.65-1.17-1.21-2.4-1.66-3.68c-0.96-2.66-1.47-5.51-1.47-8.49
		H237.228z"/>
	<path style="fill:#333333;" d="M235.753,202.487c-0.45,1.28-1.01,2.51-1.65,3.68c-4.3,7.78-12.58,13.05-22.1,13.05
		c-9.53,0-17.81-5.27-22.11-13.05c-0.65-1.17-1.21-2.4-1.66-3.68H235.753z"/>
	<path style="fill:#4D4D4D;" d="M300.495,88.5v39.12c0,1.48-0.04,2.96-0.11,4.42c-3.81-17.04-12.42-32.26-24.34-44.19
		c-16.4-16.38-39.04-26.52-64.05-26.52c-43.2,0-79.36,30.26-88.38,70.75c-0.08-1.48-0.12-2.96-0.12-4.46V88.5
		c0-48.88,39.62-88.5,88.5-88.5c24.44,0,46.56,9.91,62.58,25.92C290.586,41.93,300.495,64.06,300.495,88.5z"/>
	<path style="fill:#4D4D4D;" d="M115.689,140.057h6.417v-26.295h-6.417c-2.772,0-5.02,2.247-5.02,5.02v16.255
		C110.669,137.809,112.917,140.057,115.689,140.057z"/>
	<path style="fill:#29ABE2;" d="M285.989,257.776c-14.004,0-25.397-11.393-25.397-25.397v-15.446h9v15.446
		c0,9.042,7.355,16.397,16.397,16.397s16.397-7.356,16.397-16.397V7.39h9v224.988C311.386,246.383,299.992,257.776,285.989,257.776z
		"/>
	<rect x="253.336" y="210.224" style="fill:#4D4D4D;" width="24.667" height="9"/>
	<path style="fill:#4D4D4D;" d="M308.297,140.057h-6.417v-26.295h6.417c2.772,0,5.02,2.247,5.02,5.02v16.255
		C313.315,137.809,311.068,140.057,308.297,140.057z"/>
	<rect x="302.386" y="7.39" style="fill:#F7774B;" width="9" height="18.667"/>
	<g>
		<path style="fill:#F7774B;" d="M226.794,175.907L226.794,175.907c7.467,18.225,30.576,23.807,45.539,11l14.743-12.619
			c9.395-8.041,14.803-19.789,14.803-32.155v-28.371c0-6.066-3.682-11.526-9.306-13.799l-24.304-9.825
			c-9.33-3.772-19.299-5.711-29.363-5.711h-26.913H185.08c-10.064,0-20.033,1.939-29.363,5.711l-24.304,9.825
			c-5.624,2.274-9.306,7.733-9.306,13.799v28.371c0,12.366,5.408,24.114,14.803,32.155l14.743,12.619
			c14.963,12.807,38.072,7.225,45.539-11l0,0C202.617,162.665,221.368,162.665,226.794,175.907z"/>
		<path style="fill:#64B0ED;" d="M288.925,119.677v22.46c0,8.58-3.75,16.73-10.27,22.31l-14.74,12.62
			c-3.71,3.18-7.66,3.84-10.31,3.84c-6.54,0-12.36-3.89-14.83-9.91c-4.29-10.49-14.15-17.4-25.38-17.93
			c-0.46-0.03-0.93-0.04-1.4-0.04c-11.8,0-22.31,7.05-26.79,17.97c-2.47,6.02-8.29,9.91-14.82,9.91c-0.01,0-0.01,0-0.01,0
			c-2.65,0-6.59-0.66-10.3-3.84l-14.75-12.62c-6.52-5.58-10.27-13.73-10.27-22.32v-22.45c0-4.37,2.65-8.29,6.69-9.92l18.82-7.61
			c5.32-2.16,10.84-3.58,16.47-4.28c2.66-0.33,5.34-0.49,8.04-0.49h53.83c8.4,0,16.72,1.62,24.51,4.77l18.82,7.61
			C286.286,111.387,288.925,115.307,288.925,119.677z"/>
		<path style="opacity:0.26;fill:#FFFFFF;enable-background:new    ;" d="M288.925,119.677v22.46c0,8.58-3.75,16.73-10.27,22.31
			l-14.74,12.62c-3.71,3.18-7.66,3.84-10.31,3.84c-6.54,0-12.36-3.89-14.83-9.91c-4.29-10.49-14.15-17.4-25.38-17.93l-36.36-55.2
			c2.66-0.33,5.34-0.49,8.04-0.49h53.83c8.4,0,16.72,1.62,24.51,4.77l18.82,7.61C286.286,111.387,288.925,115.307,288.925,119.677z"
			/>
	</g>
</g>
<g>
</g>
<g>
</g>
<g>
</g>
<g>
</g>
<g>
</g>
<g>
</g>
<g>
</g>
<g>
</g>
<g>
</g>
<g>
</g>
<g>
</g>
<g>
</g>
<g>
</g>
<g>
</g>
<g>
</g>
</svg>
