<?xml version="1.0" encoding="iso-8859-1"?>
<!-- Generator: Adobe Illustrator 19.0.0, SVG Export Plug-In . SVG Version: 6.00 Build 0)  -->
<svg version="1.1" id="Layer_1" xmlns="http://www.w3.org/2000/svg" xmlns:xlink="http://www.w3.org/1999/xlink" x="0px" y="0px"
	 viewBox="0 0 423.997 423.997" style="enable-background:new 0 0 423.997 423.997;" xml:space="preserve">
<g>
	<rect x="189.752" y="292.767" style="fill:#FFD3AE;" width="43.75" height="32"/>
	<path style="fill:#333333;" d="M244.502,312.407v111.59h-57.5v-107.11c7.53,3.73,16.02,5.83,24.99,5.83
		C224.102,322.717,235.322,318.897,244.502,312.407z"/>
	<path style="fill:#333333;" d="M244.502,312.407v111.59h-57.5v-107.11c7.53,3.73,16.02,5.83,24.99,5.83
		C224.102,322.717,235.322,318.897,244.502,312.407z"/>
	<path style="fill:#77D661;" d="M198.753,253.48v170.51H94.483V334.6c0-39.62,28.4-72.6,65.95-79.7c4.91-0.93,9.99-1.42,15.17-1.42
		L198.753,253.48L198.753,253.48z"/>
	<path style="fill:#77D661;" d="M329.513,334.6v89.39h-104.26V253.48h23.14c5.18,0,10.26,0.49,15.17,1.42
		C301.113,262,329.513,294.98,329.513,334.6z"/>
	<rect x="94.484" y="372.816" style="fill:#FFD3AE;" width="40.5" height="51.18"/>
	<rect x="289.014" y="372.816" style="fill:#FFD3AE;" width="40.5" height="51.18"/>
	<path style="fill:#5FBA49;" d="M175.603,253.48h23.15v56.93c-22.04-5.85-38.32-25.98-38.32-49.83v-5.68
		C165.343,253.97,170.423,253.48,175.603,253.48z"/>
	<path style="fill:#5FBA49;" d="M263.563,254.9v5.68c0,13.79-5.36,26.73-15.11,36.46c-6.52,6.53-14.5,11.09-23.2,13.39v-56.95h23.14
		C253.573,253.48,258.653,253.97,263.563,254.9z"/>
	<path style="fill:#FFD3AE;" d="M255.564,230.816v29.77c0,12.02-4.87,22.92-12.76,30.8c-7.88,7.88-18.78,12.76-30.81,12.76
		c-24.06,0-43.56-19.5-43.56-43.56v-29.77H255.564z"/>
	<g>
		<g>
			<circle style="fill:#E5B591;" cx="131.425" cy="139.996" r="27.89"/>
			<circle style="fill:#E5B591;" cx="292.56" cy="139.996" r="27.89"/>
		</g>
	</g>
	<path style="fill:#E5B591;" d="M255.564,230.816v24.06c-12.86,7.29-27.73,11.45-43.57,11.45s-30.7-4.16-43.56-11.45v-24.06H255.564
		z"/>
	<path style="fill:#FFD3AE;" d="M300.493,88.5v74c0,30.35-15.28,57.13-38.56,73.07c-0.19,0.14-0.39,0.27-0.58,0.4
		c-14.1,9.49-31.08,15.03-49.36,15.03s-35.26-5.54-49.36-15.03c-0.19-0.13-0.39-0.26-0.58-0.4c-23.28-15.94-38.56-42.72-38.56-73.07
		v-74c0-34.357,86.546-51.529,138.509-38.9C283.967,54.939,300.493,81.239,300.493,88.5z"/>
	<g>
		<path style="fill:#E5B591;" d="M164.862,139.329h35.044c6.522,0,11.81,5.287,11.81,11.81v21.123c0,5.092,4.128,9.22,9.22,9.22
			h6.748l-2.943,1.044c-7.666,2.72-16.214,0.773-21.946-4.999L164.862,139.329z"/>
	</g>
	<g>
		<path style="fill:#333333;" d="M177.993,160.433c-1.58,0-3.13-0.64-4.24-1.75c-1.12-1.12-1.76-2.67-1.76-4.25s0.64-3.12,1.76-4.24
			c1.39-1.39,3.46-2.03,5.41-1.64c0.39,0.08,0.76,0.19,1.13,0.34c0.36,0.15,0.71,0.34,1.03,0.55c0.33,0.22,0.64,0.47,0.91,0.75
			c0.28,0.28,0.53,0.58,0.75,0.91s0.4,0.68,0.55,1.04c0.15,0.36,0.27,0.74,0.34,1.12c0.08,0.39,0.12,0.78,0.12,1.17
			s-0.04,0.79-0.12,1.18c-0.07,0.38-0.19,0.76-0.34,1.12s-0.33,0.71-0.55,1.03c-0.22,0.33-0.47,0.64-0.75,0.92
			C181.122,159.793,179.573,160.433,177.993,160.433z"/>
		<path style="fill:#333333;" d="M245.993,160.433c-0.39,0-0.79-0.04-1.17-0.11c-0.38-0.08-0.76-0.2-1.12-0.35
			c-0.37-0.15-0.71-0.33-1.04-0.55c-0.33-0.22-0.64-0.47-0.91-0.74c-0.28-0.28-0.53-0.59-0.75-0.92c-0.22-0.32-0.4-0.67-0.55-1.03
			c-0.15-0.36-0.27-0.74-0.34-1.12c-0.08-0.39-0.12-0.79-0.12-1.18s0.04-0.78,0.12-1.17c0.07-0.38,0.19-0.76,0.34-1.12
			s0.33-0.71,0.55-1.04c0.22-0.33,0.47-0.63,0.75-0.91c0.27-0.28,0.58-0.53,0.91-0.75c0.33-0.21,0.67-0.4,1.04-0.55
			c0.36-0.15,0.74-0.26,1.12-0.34c1.95-0.39,4.02,0.25,5.41,1.64c0.28,0.28,0.53,0.58,0.75,0.91s0.4,0.68,0.55,1.04
			c0.15,0.36,0.27,0.74,0.34,1.12c0.08,0.39,0.12,0.78,0.12,1.17s-0.04,0.79-0.12,1.18c-0.07,0.38-0.19,0.76-0.34,1.12
			s-0.33,0.71-0.55,1.03c-0.22,0.33-0.47,0.64-0.75,0.92C249.122,159.793,247.573,160.433,245.993,160.433z"/>
		<path style="fill:#333333;" d="M188.93,142.329h-21.875c-3.087,0-5.59-2.503-5.59-5.59l0,0c0-3.087,2.503-5.59,5.59-5.59h21.875
			c3.087,0,5.59,2.503,5.59,5.59l0,0C194.52,139.827,192.017,142.329,188.93,142.329z"/>
		<path style="fill:#333333;" d="M256.93,142.329h-21.875c-3.087,0-5.59-2.503-5.59-5.59l0,0c0-3.087,2.503-5.59,5.59-5.59h21.875
			c3.087,0,5.59,2.503,5.59,5.59l0,0C262.52,139.827,260.017,142.329,256.93,142.329z"/>
	</g>
	<path style="fill:#FFFFFF;" d="M237.224,193.993c0,2.98-0.52,5.83-1.48,8.49c-0.45,1.28-1.01,2.51-1.65,3.68
		c-4.3,7.78-12.58,13.05-22.1,13.05c-9.53,0-17.81-5.27-22.11-13.05c-0.65-1.17-1.21-2.4-1.66-3.68c-0.96-2.66-1.47-5.51-1.47-8.49
		H237.224z"/>
	<path style="fill:#333333;" d="M235.744,202.483c-0.45,1.28-1.01,2.51-1.65,3.68c-4.3,7.78-12.58,13.05-22.1,13.05
		c-9.53,0-17.81-5.27-22.11-13.05c-0.65-1.17-1.21-2.4-1.66-3.68H235.744z"/>
	<rect x="191.003" y="302.091" style="fill:#5FBA49;" width="7.75" height="121.899"/>
	<rect x="225.253" y="302.091" style="fill:#5FBA49;" width="7.75" height="121.899"/>
	<rect x="94.483" y="365.94" style="fill:#5FBA49;" width="40.502" height="6.876"/>
	<rect x="289.011" y="365.94" style="fill:#5FBA49;" width="40.502" height="6.876"/>
	<path style="fill:#5FBA49;" d="M267.003,399.773h-12.667c-6.443,0-11.667-5.223-11.667-11.667V366.44h36v21.667
		C278.669,394.55,273.446,399.773,267.003,399.773z"/>
	<path style="fill:#333333;" d="M123.493,123.51v7.6C123.493,131.11,123.243,128.12,123.493,123.51z"/>
	<path style="fill:#333333;" d="M300.493,88.5v24.76c-36.84-3.85-39.82-60.82-39.82-60.82s-6.67,48-50,42.67
		c-43.34-5.34-44.67-29.34-67.34-13.34c-15.87,11.21-19.24,30.93-19.84,41.74V88.5c0-48.88,39.62-88.5,88.5-88.5
		c24.44,0,46.57,9.9,62.58,25.92S300.493,64.06,300.493,88.5z"/>
</g>
<g>
</g>
<g>
</g>
<g>
</g>
<g>
</g>
<g>
</g>
<g>
</g>
<g>
</g>
<g>
</g>
<g>
</g>
<g>
</g>
<g>
</g>
<g>
</g>
<g>
</g>
<g>
</g>
<g>
</g>
</svg>
