<?xml version="1.0" encoding="iso-8859-1"?>
<!-- Generator: Adobe Illustrator 19.0.0, SVG Export Plug-In . SVG Version: 6.00 Build 0)  -->
<svg version="1.1" id="Layer_1" xmlns="http://www.w3.org/2000/svg" xmlns:xlink="http://www.w3.org/1999/xlink" x="0px" y="0px"
	 viewBox="0 0 424 424" style="enable-background:new 0 0 424 424;" xml:space="preserve">
<g>
	<rect x="134.312" y="202.39" style="fill:#DB6040;" width="155.376" height="94"/>
	<path style="fill:#57C98A;" d="M329.515,334.61V424H94.485v-89.39c0-1.11,0.02-2.22,0.07-3.31c1.53-38.14,29.38-69.49,65.88-76.39
		c4.91-0.93,9.99-1.42,15.17-1.42h72.79c5.18,0,10.26,0.49,15.17,1.42c36.5,6.9,64.35,38.25,65.88,76.39
		C329.495,332.39,329.515,333.5,329.515,334.61z"/>
	<path style="fill:#FFD3AE;" d="M300.495,88.5v74c0,30.35-15.28,57.13-38.56,73.07c-0.19,0.14-0.39,0.27-0.58,0.4
		c-14.1,9.49-31.08,15.03-49.36,15.03s-35.26-5.54-49.36-15.03c-0.19-0.13-0.39-0.26-0.58-0.4c-18.77-12.85-32.34-32.75-36.89-55.89
		c-1.1-5.56-1.67-11.3-1.67-17.18v-74c0-48.88,39.62-88.5,88.5-88.5c24.43,0,46.56,9.91,62.58,25.92
		C290.585,41.93,300.495,64.06,300.495,88.5z"/>
	<path style="fill:#E5B591;" d="M292.875,114.992v28.38c0,12.36-5.4,24.11-14.8,32.15l-14.74,12.62
		c-14.97,12.81-38.07,7.22-45.54-11c-2.71-6.62-8.76-9.93-14.8-9.93c-6.05,0-12.09,3.31-14.8,9.93c-7.47,18.22-30.58,23.81-45.54,11
		l-14.75-12.62c-0.96-0.82-1.87-1.67-2.74-2.57c-1.1-5.56-1.67-11.3-1.67-17.18v-55.01l23.22-9.39c9.33-3.77,19.3-5.71,29.36-5.71
		h53.83c10.06,0,20.03,1.94,29.36,5.71l24.31,9.83C289.195,103.472,292.875,108.932,292.875,114.992z"/>
	<path style="fill:#FFFFFF;" d="M237.227,194.897c0,2.98-0.52,5.83-1.48,8.49c-0.45,1.28-1.01,2.51-1.65,3.68
		c-4.3,7.78-12.58,13.05-22.1,13.05c-9.53,0-17.81-5.27-22.11-13.05c-0.65-1.17-1.21-2.4-1.66-3.68c-0.96-2.66-1.47-5.51-1.47-8.49
		H237.227z"/>
	<path style="fill:#F7774B;" d="M122.105,146.723V254.39l5.674-7.779c15.509-21.264,23.866-46.902,23.866-73.221l0,0
		L122.105,146.723z"/>
	<path style="fill:#F7774B;" d="M300.495,146.723V254.39l-5.674-7.779c-15.509-21.264-23.866-46.902-23.866-73.221l0,0
		L300.495,146.723z"/>
	<path style="fill:#333333;" d="M235.752,203.387c-0.45,1.28-1.01,2.51-1.65,3.68c-4.3,7.78-12.58,13.05-22.1,13.05
		c-9.53,0-17.81-5.27-22.11-13.05c-0.65-1.17-1.21-2.4-1.66-3.68H235.752z"/>
	<path style="fill:#57C98A;" d="M307.546,96.942v48.218l-95.552-46.538l-95.552,46.538V96.942c0-52.775,42.777-95.552,95.552-95.552
		c26.377,0,50.27,10.7,67.566,27.985C296.847,46.661,307.546,70.554,307.546,96.942z"/>
	<path style="fill:#48B577;" d="M313.271,108.028c-0.692-8.166-4.92-16.034-12.444-21.052c-53.608-35.751-124.056-35.751-177.664,0
		c-7.524,5.018-11.752,12.886-12.444,21.052h-0.107v41.696c0,7.056,5.72,12.776,12.776,12.776v-35.748
		c49.643-46.996,127.571-46.996,177.213,0V162.5c7.056,0,12.776-5.72,12.776-12.776v-41.696H313.271z"/>
	<path style="fill:#4D4D4D;" d="M226.793,176.87L226.793,176.87c7.467,18.225,30.576,23.807,45.539,11l14.743-12.619
		c9.395-8.041,14.803-19.789,14.803-32.155v-28.371c0-6.066-3.682-11.526-9.306-13.799l-24.304-9.825
		c-9.33-3.772-19.299-5.711-29.363-5.711h-26.913h-26.913c-10.064,0-20.033,1.939-29.363,5.711l-24.304,9.825
		c-5.624,2.274-9.306,7.733-9.306,13.799v28.371c0,12.366,5.408,24.114,14.803,32.155l14.743,12.619
		c14.963,12.807,38.072,7.225,45.539-11l0,0C202.616,163.628,221.368,163.628,226.793,176.87z"/>
	<path style="fill:#F9D950;" d="M288.925,120.64v22.46c0,8.58-3.75,16.73-10.27,22.31l-14.74,12.62c-3.71,3.18-7.66,3.84-10.31,3.84
		c-6.54,0-12.36-3.89-14.83-9.91c-4.29-10.49-14.15-17.4-25.38-17.93c-0.46-0.03-0.93-0.04-1.4-0.04c-11.8,0-22.31,7.05-26.79,17.97
		c-2.47,6.02-8.29,9.91-14.82,9.91c-0.01,0-0.01,0-0.01,0c-2.65,0-6.59-0.66-10.3-3.84l-14.75-12.62
		c-6.52-5.58-10.27-13.73-10.27-22.32v-22.45c0-4.37,2.65-8.29,6.69-9.92l18.82-7.61c5.32-2.16,10.84-3.58,16.47-4.28
		c2.66-0.33,5.34-0.49,8.04-0.49h53.83c8.4,0,16.72,1.62,24.51,4.77l18.82,7.61C286.285,112.35,288.925,116.27,288.925,120.64z"/>
	<path style="opacity:0.26;fill:#FFFFFF;enable-background:new    ;" d="M288.925,120.64v22.46c0,8.58-3.75,16.73-10.27,22.31
		l-14.74,12.62c-3.71,3.18-7.66,3.84-10.31,3.84c-6.54,0-12.36-3.89-14.83-9.91c-4.29-10.49-14.15-17.4-25.38-17.93l-36.36-55.2
		c2.66-0.33,5.34-0.49,8.04-0.49h53.83c8.4,0,16.72,1.62,24.51,4.77l18.82,7.61C286.285,112.35,288.925,116.27,288.925,120.64z"/>
	<path style="fill:#4D4D4D;" d="M118.536,146.723h3.57v-31.998h-3.57c-3.345,0-6.057,2.712-6.057,6.057v19.884
		C112.478,144.011,115.19,146.723,118.536,146.723z"/>
	<path style="fill:#4D4D4D;" d="M301.878,146.723h3.57c3.345,0,6.057-2.712,6.057-6.057v-19.884c0-3.345-2.712-6.057-6.057-6.057
		h-3.57V146.723z"/>
	<g>
		<path style="fill:#48B577;" d="M130.995,61.39c0,0,7.333-13.333,24.333-19.667v15l-25,10.667L130.995,61.39z"/>
		<path style="fill:#48B577;" d="M292.995,61.39c0,0-7.333-13.333-24.333-19.667v15l25,10.667L292.995,61.39z"/>
	</g>
	<path style="fill:#57C98A;" d="M260.195,235.57h-96.393c-5.08,0-9.198,4.118-9.198,9.198v22.622h114.79v-22.622
		C269.393,239.688,265.275,235.57,260.195,235.57z"/>
	<rect x="136" y="353.39" style="fill:#E6E6E6;" width="152" height="6"/>
	<rect x="136" y="385.39" style="fill:#E6E6E6;" width="152" height="6"/>
	<g>
		<rect x="132.483" y="330.15" style="fill:#48B577;" width="5" height="93.846"/>
		<rect x="286.514" y="330.15" style="fill:#48B577;" width="5" height="93.846"/>
	</g>
	<rect x="209.498" y="235.57" style="fill:#48B577;" width="5" height="188.427"/>
	<rect x="154.645" y="251.39" style="fill:#E6E6E6;" width="29" height="5"/>
	<rect x="240.393" y="251.39" style="fill:#E6E6E6;" width="29" height="5"/>
	<rect x="244.145" y="316.89" style="fill:#E6E6E6;" width="30" height="11"/>
</g>
<g>
</g>
<g>
</g>
<g>
</g>
<g>
</g>
<g>
</g>
<g>
</g>
<g>
</g>
<g>
</g>
<g>
</g>
<g>
</g>
<g>
</g>
<g>
</g>
<g>
</g>
<g>
</g>
<g>
</g>
</svg>
