<?xml version="1.0" encoding="iso-8859-1"?>
<!-- Generator: Adobe Illustrator 19.0.0, SVG Export Plug-In . SVG Version: 6.00 Build 0)  -->
<svg version="1.1" id="Layer_1" xmlns="http://www.w3.org/2000/svg" xmlns:xlink="http://www.w3.org/1999/xlink" x="0px" y="0px"
	 viewBox="0 0 424 424" style="enable-background:new 0 0 424 424;" xml:space="preserve">
<g>
	<path style="fill:#FFD3AE;" d="M329.515,334.607v89.39H94.485v-89.39c0-39.62,28.4-72.6,65.95-79.7c4.91-0.93,9.99-1.42,15.17-1.42
		h72.79c5.18,0,10.26,0.49,15.17,1.42C301.115,262.007,329.515,294.987,329.515,334.607z"/>
	<g>
		<rect x="132.485" y="330.153" style="fill:#E5B591;" width="5" height="93.847"/>
		<rect x="286.515" y="330.153" style="fill:#E5B591;" width="5" height="93.847"/>
	</g>
	<path style="fill:#FFD3AE;" d="M255.565,230.82v29.77c0,12.02-4.87,22.92-12.76,30.8c-7.88,7.88-18.78,12.76-30.81,12.76
		c-24.06,0-43.56-19.5-43.56-43.56v-29.77L255.565,230.82L255.565,230.82z"/>
	<path style="fill:#E5B591;" d="M255.565,224.32v24.06c-12.86,7.29-27.73,11.45-43.57,11.45c-15.84,0-30.7-4.16-43.56-11.45v-24.06
		L255.565,224.32L255.565,224.32z"/>
	<path style="fill:#FFD3AE;" d="M300.49,88.5v74c0,1.48-0.04,2.96-0.11,4.42c-0.13,2.56-0.36,5.09-0.7,7.59
		c-0.55,4.09-1.39,8.1-2.49,11.99c-5.68,20.22-18.36,37.5-35.26,49.07c-0.19,0.14-0.39,0.27-0.58,0.4
		c-14.1,9.49-31.08,15.03-49.36,15.03s-35.26-5.54-49.36-15.03c-0.19-0.13-0.39-0.26-0.58-0.4c-16.9-11.57-29.58-28.85-35.26-49.07
		c-1.1-3.89-1.94-7.9-2.49-11.99c-0.34-2.49-0.57-5-0.69-7.55c-0.08-1.48-0.12-2.96-0.12-4.46v-74
		C123.49,84.44,300.49,84.44,300.49,88.5z"/>
	<g>
		<path style="fill:#E5B591;" d="M164.863,139.333h35.044c6.522,0,11.81,5.287,11.81,11.81v21.123c0,5.092,4.128,9.22,9.22,9.22
			h6.748l-2.943,1.044c-7.666,2.72-16.214,0.773-21.946-4.999L164.863,139.333z"/>
	</g>
	<g>
		<path style="fill:#C69D7B;" d="M188.931,141.934h-21.875c-3.087,0-5.59-2.503-5.59-5.59l0,0c0-3.087,2.503-5.59,5.59-5.59h21.875
			c3.087,0,5.59,2.503,5.59,5.59l0,0C194.521,139.431,192.018,141.934,188.931,141.934z"/>
		<path style="fill:#C69D7B;" d="M256.931,141.934h-21.875c-3.087,0-5.59-2.503-5.59-5.59l0,0c0-3.087,2.503-5.59,5.59-5.59h21.875
			c3.087,0,5.59,2.503,5.59,5.59l0,0C262.521,139.431,260.018,141.934,256.931,141.934z"/>
	</g>
	<path style="fill:#FFFFFF;" d="M237.225,193.997c0,2.98-0.52,5.83-1.48,8.49c-0.45,1.28-1.01,2.51-1.65,3.68
		c-4.3,7.78-12.58,13.05-22.1,13.05c-9.53,0-17.81-5.27-22.11-13.05c-0.65-1.17-1.21-2.4-1.66-3.68c-0.96-2.66-1.47-5.51-1.47-8.49
		H237.225z"/>
	<path style="fill:#333333;" d="M235.745,202.487c-0.45,1.28-1.01,2.51-1.65,3.68c-4.3,7.78-12.58,13.05-22.1,13.05
		c-9.53,0-17.81-5.27-22.11-13.05c-0.65-1.17-1.21-2.4-1.66-3.68H235.745z"/>
	<rect x="123.497" y="152.095" style="fill:#4D4D4D;" width="176.993" height="5"/>
	<g>
		<circle style="fill:#E5B591;" cx="160.175" cy="358.337" r="7"/>
		<circle style="fill:#E5B591;" cx="263.825" cy="358.337" r="7"/>
	</g>
	<g>
		<path style="fill:#50BBD8;" d="M201.76,154.6c0,6.68-5.84,11.86-12.47,11.06l-13.18-1.57l-7.58-0.91
			c-2.17-0.26-4.08-1.31-5.44-2.85c-1.36-1.53-2.18-3.54-2.18-5.73c0-4.38,3.28-8.07,7.62-8.59l20.76-2.48
			c0.04,0,0.09-0.01,0.13-0.01c0.42-0.05,0.82-0.07,1.22-0.07C196.69,143.45,201.76,148.37,201.76,154.6z"/>
		<path style="fill:#50BBD8;" d="M263.07,154.6c0,2.19-0.82,4.2-2.18,5.73c-1.36,1.54-3.26,2.59-5.44,2.85l-20.75,2.48
			c-0.28,0.03-0.57,0.05-0.84,0.06c-3.15,0.15-6.06-1.03-8.18-3.07c-2.12-2.01-3.45-4.86-3.45-8.05c0-6.23,5.06-11.15,11.12-11.15
			c0.44,0,0.89,0.03,1.35,0.08l3.12,0.37l9.43,1.13l8.2,0.98C259.8,146.53,263.07,150.22,263.07,154.6z"/>
	</g>
	<path style="opacity:0.26;fill:#FFFFFF;enable-background:new    ;" d="M263.07,154.6c0,2.19-0.82,4.2-2.18,5.73
		c-1.36,1.54-3.26,2.59-5.44,2.85l-20.75,2.48c-0.28,0.03-0.57,0.05-0.84,0.06l13.39-20.69l8.2,0.98
		C259.8,146.53,263.07,150.22,263.07,154.6z"/>
	<path style="opacity:0.26;fill:#FFFFFF;enable-background:new    ;" d="M201.76,154.6c0,6.68-5.84,11.86-12.47,11.06l-13.18-1.57
		l13.31-20.57c0.42-0.05,0.82-0.07,1.22-0.07C196.69,143.45,201.76,148.37,201.76,154.6z"/>
	<path style="fill:#4D4D4D;" d="M300.49,88.5v74c0,1.48-0.04,2.96-0.11,4.42c-3.81-17.04-12.42-32.26-24.34-44.19
		c-16.4-16.38-39.04-26.52-64.05-26.52c-43.2,0-79.36,30.26-88.38,70.75c-0.08-1.48-0.12-2.96-0.12-4.46v-74
		c0-4.06,0.27-8.06,0.81-11.98C130.14,33.31,167.18,0,211.99,0c24.44,0,46.56,9.91,62.58,25.92c13.36,13.35,22.46,30.95,25.11,50.6
		C300.22,80.44,300.49,84.44,300.49,88.5z"/>
</g>
<g>
</g>
<g>
</g>
<g>
</g>
<g>
</g>
<g>
</g>
<g>
</g>
<g>
</g>
<g>
</g>
<g>
</g>
<g>
</g>
<g>
</g>
<g>
</g>
<g>
</g>
<g>
</g>
<g>
</g>
</svg>
