<?xml version="1.0" encoding="iso-8859-1"?>
<!-- Generator: Adobe Illustrator 19.0.0, SVG Export Plug-In . SVG Version: 6.00 Build 0)  -->
<svg version="1.1" id="Layer_1" xmlns="http://www.w3.org/2000/svg" xmlns:xlink="http://www.w3.org/1999/xlink" x="0px" y="0px"
	 viewBox="0 0 415.205 415.205" style="enable-background:new 0 0 415.205 415.205;" xml:space="preserve">
<g>
	<path style="fill:#EA86EA;" d="M325.177,325.812v89.39H90.147v-89.39c0-39.62,28.4-72.6,65.95-79.7c4.91-0.93,9.99-1.42,15.17-1.42
		h72.79c5.18,0,10.26,0.49,15.17,1.42C296.777,253.212,325.177,286.192,325.177,325.812z"/>
	<path style="fill:#FFFFFF;" d="M319.177,325.812h-4c0-34.154-24.313-63.541-57.811-69.875c-4.363-0.827-8.841-1.246-13.31-1.246
		h-72.79c-4.469,0-8.947,0.419-13.312,1.246c-33.497,6.334-57.809,35.72-57.809,69.875h-4c0-36.075,25.682-67.114,61.065-73.805
		c4.608-0.873,9.337-1.315,14.055-1.315h72.79c4.718,0,9.446,0.442,14.053,1.315C293.494,258.698,319.177,289.737,319.177,325.812z"
		/>
	<path style="fill:#CC6FCE;" d="M259.227,246.112v8.16l-51.57,75.24l-51.56-75.24v-8.16c4.91-0.93,9.99-1.42,15.17-1.42h72.79
		C249.237,244.692,254.317,245.182,259.227,246.112z"/>
	<rect x="90.147" y="364.025" style="fill:#FFD3AE;" width="40.5" height="51.18"/>
	<rect x="284.677" y="364.025" style="fill:#FFD3AE;" width="40.5" height="51.18"/>
	<polygon style="fill:#FFD3AE;" points="251.227,222.025 251.227,251.795 207.657,315.359 164.097,251.795 164.097,222.025 	"/>
	<rect x="90.147" y="354.692" style="fill:#CC6FCE;" width="40.5" height="9.333"/>
	<rect x="284.677" y="354.692" style="fill:#CC6FCE;" width="40.5" height="9.333"/>
	<path style="fill:#CC6FCE;" d="M276.606,329.039c2.135,0,3.865,1.731,3.865,3.865v8.082c0,7.635-10.143,21.27-15.546,27.99
		c-1.696,2.109-4.899,2.109-6.594,0c-5.402-6.72-15.546-20.354-15.546-27.99v-8.082c0-2.135,1.731-3.865,3.865-3.865H276.606z"/>
	<path style="fill:#EFCB35;" d="M261.628,363.48c-9.446-12.046-12.843-19.613-12.843-22.494v-5.947h25.686v5.947
		C274.471,343.867,271.075,351.433,261.628,363.48z"/>
	<path style="fill:#E5B591;" d="M251.227,222.025v24.06c-12.86,7.29-27.73,11.45-43.57,11.45s-30.7-4.16-43.56-11.45v-24.06
		L251.227,222.025L251.227,222.025z"/>
	<path style="fill:#FFD3AE;" d="M207.601,242.205L207.601,242.205c-40.532,0-74.168-31.335-77.034-71.766l-5.157-72.741
		c-3.38-47.681,34.39-88.224,82.191-88.224l0,0c47.801,0,85.571,40.542,82.191,88.224l-5.157,72.741
		C281.768,210.87,248.133,242.205,207.601,242.205z"/>
	<g>
		<path style="fill:#E5B591;" d="M156.525,130.538h35.044c6.522,0,11.81,5.287,11.81,11.81v25.558c0,2.643,2.142,4.785,4.785,4.785
			h11.183l-9.485,3.366c-3.672,1.303-7.767,0.37-10.513-2.395L156.525,130.538z"/>
	</g>
	<g>
		<path style="fill:#FFFFFF;" d="M228.612,189.474c0,2.475-0.432,4.842-1.229,7.052c-0.374,1.063-0.839,2.085-1.371,3.057
			c-3.572,6.462-10.449,10.839-18.356,10.839c-7.916,0-14.793-4.377-18.365-10.839c-0.54-0.972-1.005-1.993-1.379-3.057
			c-0.797-2.209-1.221-4.577-1.221-7.052H228.612z"/>
		<path style="fill:#333333;" d="M227.39,196.526c-0.374,1.063-0.839,2.085-1.371,3.057c-3.572,6.462-10.449,10.839-18.356,10.839
			c-7.916,0-14.793-4.377-18.365-10.839c-0.54-0.972-1.005-1.993-1.379-3.057H227.39z"/>
	</g>
	<path style="fill:#666666;" d="M184.283,134.975c-0.322,0-0.65-0.052-0.972-0.163c-6.947-2.378-14.6-2.379-21.548,0
		c-1.567,0.536-3.273-0.3-3.81-1.867s0.299-3.273,1.867-3.81c8.202-2.807,17.235-2.807,25.435,0c1.567,0.537,2.403,2.243,1.867,3.81
		C186.694,134.191,185.53,134.975,184.283,134.975z"/>
	<path style="fill:#666666;" d="M254.41,134.975c-0.322,0-0.65-0.052-0.972-0.163c-6.948-2.379-14.601-2.379-21.547,0
		c-1.568,0.536-3.273-0.3-3.81-1.867s0.299-3.273,1.867-3.81c8.201-2.807,17.234-2.807,25.434,0c1.567,0.537,2.403,2.243,1.867,3.81
		C256.821,134.191,255.657,134.975,254.41,134.975z"/>
	<g>
		<circle style="fill:#FCC9A2;" cx="251.905" cy="179.474" r="16"/>
		<circle style="fill:#FCC9A2;" cx="163.405" cy="179.474" r="16"/>
	</g>
	<polyline style="fill:#E5B591;" points="136.939,123.205 280.939,113.872 228.272,61.205 142.272,100.538 129.606,106.538 	"/>
	<path style="fill:#4D4D4D;" d="M314.794,109.622c-0.68-3.492-1.307-8.322-1.871-14.02C307.632,41.382,262.09,0,207.608,0h-0.021
		c-54.471,0-100.024,41.382-105.315,95.602c-0.554,5.698-1.181,10.528-1.871,14.02c-0.418,2.112-0.857,4.255-1.338,6.43
		c-0.889,4.119-1.892,8.322-2.99,12.546c-5.353,20.492-13.257,41.371-24.737,54.429c0,0,26.127,34.481,69.38,35.202
		c0,0-6.461-57.482-3.325-89.632c0.47-4.851,1.16-9.127,2.122-12.546c0.617-2.185,1.349-4.025,2.206-5.426h85.728V77l10.234,33.626
		h35.804c11.062,18.098,1.004,107.604,1.004,107.604c43.253-0.721,69.38-35.202,69.38-35.202
		C328.772,165.86,319.875,135.195,314.794,109.622z"/>
	<path style="fill:#CC6FCE;" d="M280.252,362.144v10.59c0,15.87-12.86,28.74-28.73,28.74h-87.71c-15.87,0-28.74-12.87-28.74-28.74
		v-10.59h0.4c2.25,13.62,14.09,24,28.34,24h87.71c14.25,0,26.08-10.38,28.33-24H280.252z"/>
	<path style="fill:#EA86EA;" d="M139.514,116.052c-0.962,3.419-1.652,7.695-2.122,12.546h-41.32
		c1.098-4.224,2.101-8.427,2.99-12.546C99.062,116.052,139.514,116.052,139.514,116.052z"/>
	<g>
		<circle style="fill:#333333;" cx="172.537" cy="145.872" r="6"/>
		<circle style="fill:#333333;" cx="242.664" cy="145.872" r="6"/>
	</g>
</g>
<g>
</g>
<g>
</g>
<g>
</g>
<g>
</g>
<g>
</g>
<g>
</g>
<g>
</g>
<g>
</g>
<g>
</g>
<g>
</g>
<g>
</g>
<g>
</g>
<g>
</g>
<g>
</g>
<g>
</g>
</svg>
