<?xml version="1.0" encoding="iso-8859-1"?>
<!-- Generator: Adobe Illustrator 19.0.0, SVG Export Plug-In . SVG Version: 6.00 Build 0)  -->
<svg version="1.1" id="Layer_1" xmlns="http://www.w3.org/2000/svg" xmlns:xlink="http://www.w3.org/1999/xlink" x="0px" y="0px"
	 viewBox="0 0 405.731 405.731" style="enable-background:new 0 0 405.731 405.731;" xml:space="preserve">
<g>
	<g>
		<g>
			<polyline style="fill:#333333;" points="120.315,88.94 120.315,271.02 171.838,271.02 171.838,85.02 			"/>
			<polyline style="fill:#333333;" points="280.838,88.94 280.838,271.02 229.315,271.02 229.315,85.02 			"/>
		</g>
		<path style="fill:#57C98A;" d="M318.092,316.337v89.39H83.062v-89.39c0-39.62,28.4-72.6,65.95-79.7
			c4.91-0.93,9.99-1.42,15.17-1.42h72.79c5.18,0,10.26,0.49,15.17,1.42C289.692,243.737,318.092,276.717,318.092,316.337z"/>
		<rect x="83.062" y="354.551" style="fill:#A67C52;" width="40.5" height="51.18"/>
		<rect x="277.592" y="354.551" style="fill:#A67C52;" width="40.5" height="51.18"/>
		<path style="fill:#44B273;" d="M252.142,236.637v5.68c0,13.79-5.36,26.73-15.11,36.46c-9.73,9.74-22.68,15.1-36.46,15.1
			c-28.43,0-51.56-23.13-51.56-51.56v-5.68c4.91-0.93,9.99-1.42,15.17-1.42h72.79C242.152,235.217,247.232,235.707,252.142,236.637z
			"/>
		<path style="fill:#A67C52;" d="M244.142,212.551v29.77c0,12.02-4.87,22.92-12.76,30.8c-7.88,7.88-18.78,12.76-30.81,12.76
			c-24.06,0-43.56-19.5-43.56-43.56v-29.77L244.142,212.551L244.142,212.551z"/>
		<g>
			<g>
				<circle style="fill:#91663F;" cx="133.198" cy="133.73" r="27.89"/>
				<circle style="fill:#91663F;" cx="267.833" cy="133.73" r="27.89"/>
			</g>
		</g>
		<path style="fill:#91663F;" d="M244.142,212.551v24.06c-12.86,7.29-27.73,11.45-43.57,11.45c-15.84,0-30.7-4.16-43.56-11.45
			v-24.06H244.142z"/>
		<path style="fill:#A67C52;" d="M279.092,82.29c0,1.96-0.067,3.94-0.2,5.93l-1.345,72.74c-2.86,40.44-36.5,71.77-77.03,71.77
			s-74.17-31.33-77.04-71.77l-1.325-72.74c-0.715-10.52-3.315-20.7-0.385-30.17C132.107,24.62,163.267,0,200.517,0
			s68.41,24.62,78.75,58.05C281.637,65.73,279.092,73.87,279.092,82.29z"/>
		<g>
			<path style="fill:#91663F;" d="M149.44,121.064h35.044c6.522,0,11.81,5.287,11.81,11.81v25.558c0,2.643,2.142,4.785,4.785,4.785
				h11.183l-9.485,3.366c-3.672,1.303-7.767,0.37-10.513-2.395L149.44,121.064z"/>
		</g>
		<g>
			<path style="fill:#FFFFFF;" d="M221.527,179.999c0,2.475-0.432,4.842-1.229,7.052c-0.374,1.063-0.839,2.085-1.371,3.057
				c-3.572,6.462-10.449,10.839-18.356,10.839c-7.916,0-14.793-4.377-18.365-10.839c-0.54-0.972-1.005-1.993-1.379-3.057
				c-0.797-2.209-1.221-4.577-1.221-7.052H221.527z"/>
			<path style="fill:#333333;" d="M220.305,187.051c-0.374,1.063-0.839,2.085-1.371,3.057c-3.572,6.462-10.449,10.839-18.356,10.839
				c-7.916,0-14.793-4.377-18.365-10.839c-0.54-0.972-1.005-1.993-1.379-3.057H220.305z"/>
		</g>
		<path style="fill:#4D4D4D;" d="M177.197,125.5c-0.322,0-0.649-0.052-0.972-0.163c-6.945-2.378-14.599-2.378-21.548,0
			c-1.568,0.537-3.273-0.299-3.81-1.867c-0.537-1.567,0.299-3.273,1.866-3.81c8.202-2.808,17.234-2.808,25.435,0
			c1.567,0.537,2.403,2.243,1.866,3.81C179.609,124.716,178.444,125.5,177.197,125.5z"/>
		<path style="fill:#4D4D4D;" d="M247.324,125.5c-0.322,0-0.649-0.052-0.972-0.163c-6.946-2.378-14.6-2.378-21.548,0
			c-1.567,0.537-3.273-0.299-3.81-1.867c-0.537-1.567,0.299-3.273,1.866-3.81c8.202-2.808,17.234-2.808,25.435,0
			c1.567,0.537,2.403,2.243,1.866,3.81C249.736,124.716,248.571,125.5,247.324,125.5z"/>
		<g>
			<circle style="fill:#A57346;" cx="244.82" cy="169.999" r="16"/>
			<circle style="fill:#A57346;" cx="156.32" cy="169.999" r="16"/>
		</g>
		<polygon style="fill:#91663F;" points="269.868,93.134 129.868,107.134 136.868,86.134 		"/>
		<path style="fill:#333333;" d="M279.267,58.05c-1.15,11.2-3.41,18.3-3.41,18.3h-150.68c0,0-2.26-7.1-3.41-18.3
			C132.107,24.62,163.267,0,200.517,0S268.927,24.62,279.267,58.05z"/>
		<polygon style="fill:#333333;" points="120.315,88.353 120.315,191.687 139.69,93.889 		"/>
		<polygon style="fill:#333333;" points="280.838,88.353 280.838,191.687 261.463,93.889 		"/>
		<path style="fill:#44B273;" d="M273.165,352.669v10.59c0,15.87-12.86,28.74-28.73,28.74h-87.71c-15.87,0-28.74-12.87-28.74-28.74
			v-10.59h0.4c2.25,13.62,14.09,24,28.34,24h87.71c14.25,0,26.08-10.38,28.33-24H273.165z"/>
		<path style="fill:#F2B53D;" d="M281.479,94.02H119.552c-2.781,0-5.036-2.255-5.036-5.036V64.056c0-2.781,2.255-5.036,5.036-5.036
			H281.48c2.781,0,5.036,2.255,5.036,5.036v24.928C286.515,91.765,284.261,94.02,281.479,94.02z"/>
		<g>
			<circle style="fill:#333333;" cx="165.452" cy="141.134" r="6"/>
			<circle style="fill:#333333;" cx="235.579" cy="141.134" r="6"/>
		</g>
	</g>
	<path style="fill:#F2B53D;" d="M317.584,369.333h-39.992v25.333h39.992c2.808,0,5.085-2.276,5.085-5.085v-15.164
		C322.669,371.609,320.392,369.333,317.584,369.333z"/>
</g>
<g>
</g>
<g>
</g>
<g>
</g>
<g>
</g>
<g>
</g>
<g>
</g>
<g>
</g>
<g>
</g>
<g>
</g>
<g>
</g>
<g>
</g>
<g>
</g>
<g>
</g>
<g>
</g>
<g>
</g>
</svg>
