<?xml version="1.0" encoding="iso-8859-1"?>
<!-- Generator: Adobe Illustrator 19.0.0, SVG Export Plug-In . SVG Version: 6.00 Build 0)  -->
<svg version="1.1" id="Layer_1" xmlns="http://www.w3.org/2000/svg" xmlns:xlink="http://www.w3.org/1999/xlink" x="0px" y="0px"
	 viewBox="0 0 424 424" style="enable-background:new 0 0 424 424;" xml:space="preserve">
<g>
	<path style="fill:#4DA8F4;" d="M329.517,334.604v89.39H94.486v-89.39c0-26.23,12.45-49.55,31.76-64.37
		c2.78-2.13,5.69-4.08,8.73-5.84c4.61-2.68,7.407,4.365,12.527,2.625c2.08-0.7,6.293-10.595,8.443-11.125
		c1.48-0.38,2.98-0.7,4.49-0.99c4.91-0.93,9.99-1.42,15.17-1.42h72.79c5.18,0,10.26,0.49,15.17,1.42c1.51,0.29,3,0.61,4.48,0.98
		c2.15,0.53,5.377,6.925,7.457,7.635c5.12,1.73,8.903-1.815,13.513,0.865c3.04,1.76,5.95,3.71,8.73,5.84
		C317.066,285.044,329.517,308.364,329.517,334.604z"/>
	<g>
		<path style="fill:#F9D950;" d="M155.947,255.894v168.1h-20.97v-159.6c4.61-2.68,9.5-4.91,14.62-6.65
			C151.676,257.044,153.796,256.424,155.947,255.894z"/>
		<rect x="179.337" y="253.484" style="fill:#F9D950;" width="20.97" height="170.51"/>
		<rect x="223.686" y="253.484" style="fill:#F9D950;" width="20.98" height="170.51"/>
		<path style="fill:#F9D950;" d="M289.017,264.384v159.61h-20.97v-168.11c2.15,0.53,4.27,1.15,6.35,1.86
			C279.517,259.474,284.407,261.704,289.017,264.384z"/>
	</g>
	<rect x="94.483" y="372.82" style="fill:#A67C52;" width="40.5" height="51.18"/>
	<rect x="289.013" y="372.82" style="fill:#A67C52;" width="40.5" height="51.18"/>
	<path style="fill:#3998D8;" d="M263.564,254.907v5.68c0,13.79-5.36,26.73-15.11,36.46c-9.73,9.74-22.68,15.1-36.46,15.1
		c-28.43,0-51.56-23.13-51.56-51.56v-5.68c4.91-0.93,9.99-1.42,15.17-1.42h72.79C253.574,253.487,258.653,253.977,263.564,254.907z"
		/>
	<path style="fill:#A67C52;" d="M255.564,230.82v29.77c0,12.02-4.87,22.92-12.76,30.8c-7.88,7.88-18.78,12.76-30.81,12.76
		c-24.06,0-43.56-19.5-43.56-43.56v-29.77L255.564,230.82L255.564,230.82z"/>
	<path style="fill:#91663F;" d="M255.564,230.82v24.06c-12.86,7.29-27.73,11.45-43.57,11.45s-30.7-4.16-43.56-11.45v-24.06
		L255.564,230.82L255.564,230.82z"/>
	<g>
		<g>
			<g>
				<circle style="fill:#91663F;" cx="131.431" cy="140" r="27.89"/>
				<circle style="fill:#91663F;" cx="292.566" cy="140" r="27.89"/>
			</g>
		</g>
		<path style="fill:#A67C52;" d="M261.358,235.97c-14.1,9.49-31.08,15.03-49.36,15.03s-35.26-5.54-49.36-15.03
			c-0.19-0.13-0.39-0.26-0.58-0.4c-23.28-15.94-38.56-42.72-38.56-73.07V140V88.5c0-48.877,177-48.877,177,0V140v22.5
			c0,30.35-15.28,57.13-38.56,73.07C261.749,235.71,261.548,235.84,261.358,235.97z"/>
		<g>
			<path style="fill:#91663F;" d="M164.868,139.333h35.044c6.522,0,11.81,5.287,11.81,11.81v21.123c0,5.092,4.128,9.22,9.22,9.22
				h6.748l-2.943,1.044c-7.666,2.72-16.214,0.773-21.946-4.999L164.868,139.333z"/>
		</g>
		<g>
			<path style="fill:#333333;" d="M177.999,160.437c-1.58,0-3.13-0.64-4.24-1.75c-1.12-1.12-1.76-2.67-1.76-4.25
				s0.64-3.12,1.76-4.24c1.39-1.39,3.46-2.03,5.41-1.64c0.39,0.08,0.76,0.19,1.13,0.34c0.36,0.15,0.71,0.34,1.03,0.55
				c0.33,0.22,0.64,0.47,0.91,0.75c0.28,0.28,0.53,0.58,0.75,0.91s0.4,0.68,0.55,1.04c0.15,0.36,0.27,0.74,0.34,1.12
				c0.08,0.39,0.12,0.78,0.12,1.17s-0.04,0.79-0.12,1.18c-0.07,0.38-0.19,0.76-0.34,1.12s-0.33,0.71-0.55,1.03
				c-0.22,0.33-0.47,0.64-0.75,0.92C181.128,159.797,179.579,160.437,177.999,160.437z"/>
			<path style="fill:#333333;" d="M245.999,160.437c-0.39,0-0.79-0.04-1.17-0.11c-0.38-0.08-0.76-0.2-1.12-0.35
				c-0.37-0.15-0.71-0.33-1.04-0.55c-0.33-0.22-0.64-0.47-0.91-0.74c-0.28-0.28-0.53-0.59-0.75-0.92c-0.22-0.32-0.4-0.67-0.55-1.03
				c-0.15-0.36-0.27-0.74-0.34-1.12c-0.08-0.39-0.12-0.79-0.12-1.18s0.04-0.78,0.12-1.17c0.07-0.38,0.19-0.76,0.34-1.12
				s0.33-0.71,0.55-1.04c0.22-0.33,0.47-0.63,0.75-0.91c0.27-0.28,0.58-0.53,0.91-0.75c0.33-0.21,0.67-0.4,1.04-0.55
				c0.36-0.15,0.74-0.26,1.12-0.34c1.95-0.39,4.02,0.25,5.41,1.64c0.28,0.28,0.53,0.58,0.75,0.91s0.4,0.68,0.55,1.04
				c0.15,0.36,0.27,0.74,0.34,1.12c0.08,0.39,0.12,0.78,0.12,1.17s-0.04,0.79-0.12,1.18c-0.07,0.38-0.19,0.76-0.34,1.12
				s-0.33,0.71-0.55,1.03c-0.22,0.33-0.47,0.64-0.75,0.92C249.128,159.797,247.579,160.437,245.999,160.437z"/>
			<path style="fill:#333333;" d="M188.936,142.333h-21.875c-3.087,0-5.59-2.503-5.59-5.59l0,0c0-3.087,2.503-5.59,5.59-5.59h21.875
				c3.087,0,5.59,2.503,5.59,5.59l0,0C194.526,139.831,192.023,142.333,188.936,142.333z"/>
			<path style="fill:#333333;" d="M256.936,142.333h-21.875c-3.087,0-5.59-2.503-5.59-5.59l0,0c0-3.087,2.503-5.59,5.59-5.59h21.875
				c3.087,0,5.59,2.503,5.59,5.59l0,0C262.526,139.831,260.023,142.333,256.936,142.333z"/>
		</g>
		<path style="fill:#FFFFFF;" d="M237.233,193.997c0,2.98-0.52,5.83-1.48,8.49c-0.45,1.28-1.01,2.51-1.65,3.68
			c-4.3,7.78-12.58,13.05-22.1,13.05c-9.53,0-17.81-5.27-22.11-13.05c-0.65-1.17-1.21-2.4-1.66-3.68c-0.96-2.66-1.47-5.51-1.47-8.49
			H237.233z"/>
		<path style="fill:#333333;" d="M235.759,202.487c-0.45,1.28-1.01,2.51-1.65,3.68c-4.3,7.78-12.58,13.05-22.1,13.05
			c-9.53,0-17.81-5.27-22.11-13.05c-0.65-1.17-1.21-2.4-1.66-3.68H235.759z"/>
		<path style="fill:#333333;" d="M300.499,88.5V132c-13.19,0-23.89-10.69-23.89-23.89V85.04c0-9.94-10.18-16.63-19.3-12.67
			c-14.46,6.26-29.88,9.39-45.31,9.39s-30.85-3.13-45.3-9.39c-1.82-0.79-3.69-1.16-5.5-1.16c-7.28,0-13.81,5.88-13.81,13.83v23.07
			c0,13.2-10.7,23.89-23.89,23.89V88.5c0-48.877,39.623-88.5,88.5-88.5l0,0C260.876,0,300.499,39.623,300.499,88.5z"/>
	</g>
	<rect x="289.014" y="359.777" style="fill:#F9D950;" width="40.503" height="13.043"/>
	<rect x="94.486" y="359.777" style="fill:#F9D950;" width="40.503" height="13.043"/>
</g>
<g>
</g>
<g>
</g>
<g>
</g>
<g>
</g>
<g>
</g>
<g>
</g>
<g>
</g>
<g>
</g>
<g>
</g>
<g>
</g>
<g>
</g>
<g>
</g>
<g>
</g>
<g>
</g>
<g>
</g>
</svg>
