<?xml version="1.0" encoding="iso-8859-1"?>
<!-- Generator: Adobe Illustrator 19.0.0, SVG Export Plug-In . SVG Version: 6.00 Build 0)  -->
<svg version="1.1" id="Layer_1" xmlns="http://www.w3.org/2000/svg" xmlns:xlink="http://www.w3.org/1999/xlink" x="0px" y="0px"
	 viewBox="0 0 430.154 430.154" style="enable-background:new 0 0 430.154 430.154;" xml:space="preserve">
<g>
	<path style="fill:#FCC447;" d="M332.592,340.76v89.39H97.562v-89.39c0-39.62,28.4-72.6,65.95-79.7c4.91-0.93,9.99-1.42,15.17-1.42
		h72.79c5.18,0,10.26,0.49,15.17,1.42C304.192,268.16,332.592,301.14,332.592,340.76z"/>
	<rect x="97.562" y="378.974" style="fill:#4D99F4;" width="40.5" height="51.18"/>
	<rect x="292.092" y="378.974" style="fill:#4D99F4;" width="40.5" height="51.18"/>
	<path style="fill:#D8A132;" d="M266.642,267.22L266.642,267.22l-51.57,71.907l-51.56-71.907l0,0c0-4.821,3.662-8.911,8.468-9.306
		c2.211-0.182,4.447-0.274,6.702-0.274h72.79c2.255,0,4.491,0.093,6.702,0.274C262.979,258.309,266.642,262.399,266.642,267.22z"/>
	<polygon style="fill:#FFD3AE;" points="258.642,231.64 258.642,261.41 250.812,272.83 215.072,324.97 179.332,272.82 
		171.512,261.41 171.512,231.64 	"/>
	<path style="fill:#398DD3;" d="M250.812,272.83l-11.54,16.84l-24.2,35.3l-24.19-35.29l-11.55-16.86
		c8.91,8.55,21.63,13.9,35.74,13.9h0.01C229.192,286.72,241.902,281.38,250.812,272.83z"/>
	<path style="fill:#4D99F4;" d="M239.272,289.67l-24.2,35.3l-24.19-35.29c7.13,3.63,15.39,5.71,24.19,5.71h0.01
		C223.882,295.39,232.142,293.31,239.272,289.67z"/>
	<path style="fill:#E5B591;" d="M258.642,234.974v24.06c-12.86,7.29-27.73,11.45-43.57,11.45c-15.84,0-30.7-4.16-43.56-11.45v-24.06
		H258.642z"/>
	<path style="fill:#FFD3AE;" d="M264.43,242.123c-14.1,9.49-31.08,15.03-49.36,15.03s-35.26-5.54-49.36-15.03
		c-0.19-0.13-0.39-0.26-0.58-0.4c-23.28-15.94-38.56-42.72-38.56-73.07v-22.5v-51.5c0-48.877,39.623-88.5,88.5-88.5l0,0
		c48.877,0,88.5,39.623,88.5,88.5v51.5v22.5c0,30.35-15.28,57.13-38.56,73.07C264.82,241.863,264.62,241.993,264.43,242.123z"/>
	<path style="fill:#E5B591;" d="M291.57,79.64l4.85,52.219L144.65,222.24c-11.35-14.87-18.08-33.45-18.08-53.59v-74
		c0-5.55,0.51-10.98,1.49-16.24L291.57,79.64z"/>
	<g>
		<path style="fill:#E5B591;" d="M167.94,145.487h35.044c6.522,0,11.81,5.287,11.81,11.81v21.123c0,5.092,4.128,9.22,9.22,9.22
			h6.748l-2.943,1.044c-7.666,2.72-16.214,0.773-21.946-4.999L167.94,145.487z"/>
	</g>
	<g>
		<path style="fill:#333333;" d="M181.07,166.59c-1.58,0-3.13-0.64-4.24-1.75c-1.12-1.12-1.76-2.67-1.76-4.25s0.64-3.12,1.76-4.24
			c1.39-1.39,3.46-2.03,5.41-1.64c0.39,0.08,0.76,0.19,1.13,0.34c0.36,0.15,0.71,0.34,1.03,0.55c0.33,0.22,0.64,0.47,0.91,0.75
			c0.28,0.28,0.53,0.58,0.75,0.91s0.4,0.68,0.55,1.04c0.15,0.36,0.27,0.74,0.34,1.12c0.08,0.39,0.12,0.78,0.12,1.17
			s-0.04,0.79-0.12,1.18c-0.07,0.38-0.19,0.76-0.34,1.12s-0.33,0.71-0.55,1.03c-0.22,0.33-0.47,0.64-0.75,0.92
			C184.2,165.95,182.65,166.59,181.07,166.59z"/>
		<path style="fill:#333333;" d="M249.07,166.59c-0.39,0-0.79-0.04-1.17-0.11c-0.38-0.08-0.76-0.2-1.12-0.35
			c-0.37-0.15-0.71-0.33-1.04-0.55c-0.33-0.22-0.64-0.47-0.91-0.74c-0.28-0.28-0.53-0.59-0.75-0.92c-0.22-0.32-0.4-0.67-0.55-1.03
			c-0.15-0.36-0.27-0.74-0.34-1.12c-0.08-0.39-0.12-0.79-0.12-1.18s0.04-0.78,0.12-1.17c0.07-0.38,0.19-0.76,0.34-1.12
			s0.33-0.71,0.55-1.04c0.22-0.33,0.47-0.63,0.75-0.91c0.27-0.28,0.58-0.53,0.91-0.75c0.33-0.21,0.67-0.4,1.04-0.55
			c0.36-0.15,0.74-0.26,1.12-0.34c1.95-0.39,4.02,0.25,5.41,1.64c0.28,0.28,0.53,0.58,0.75,0.91s0.4,0.68,0.55,1.04
			c0.15,0.36,0.27,0.74,0.34,1.12c0.08,0.39,0.12,0.78,0.12,1.17s-0.04,0.79-0.12,1.18c-0.07,0.38-0.19,0.76-0.34,1.12
			s-0.33,0.71-0.55,1.03c-0.22,0.33-0.47,0.64-0.75,0.92C252.2,165.95,250.65,166.59,249.07,166.59z"/>
		<path style="fill:#666666;" d="M192.008,148.487h-21.875c-3.087,0-5.59-2.503-5.59-5.59l0,0c0-3.087,2.503-5.59,5.59-5.59h21.875
			c3.087,0,5.59,2.503,5.59,5.59l0,0C197.598,145.984,195.095,148.487,192.008,148.487z"/>
		<path style="fill:#666666;" d="M260.008,148.487h-21.875c-3.087,0-5.59-2.503-5.59-5.59l0,0c0-3.087,2.503-5.59,5.59-5.59h21.875
			c3.087,0,5.59,2.503,5.59,5.59l0,0C265.598,145.984,263.095,148.487,260.008,148.487z"/>
	</g>
	<path style="fill:#FFFFFF;" d="M240.302,200.15c0,2.98-0.52,5.83-1.48,8.49c-0.45,1.28-1.01,2.51-1.65,3.68
		c-4.3,7.78-12.58,13.05-22.1,13.05c-9.53,0-17.81-5.27-22.11-13.05c-0.65-1.17-1.21-2.4-1.66-3.68c-0.96-2.66-1.47-5.51-1.47-8.49
		H240.302z"/>
	<path style="fill:#333333;" d="M238.822,208.64c-0.45,1.28-1.01,2.51-1.65,3.68c-4.3,7.78-12.58,13.05-22.1,13.05
		c-9.53,0-17.81-5.27-22.11-13.05c-0.65-1.17-1.21-2.4-1.66-3.68H238.822z"/>
	<path style="fill:#4D99F4;" d="M122.666,108.345v68.021c0,4.754,3.854,8.608,8.608,8.608l0,0c4.754,0,8.608-3.854,8.608-8.608
		V78.974"/>
	<path style="fill:#4D99F4;" d="M307.475,108.345v68.021c0,4.754-3.854,8.608-8.608,8.608l0,0c-4.754,0-8.608-3.854-8.608-8.608
		V78.974"/>
	<path style="fill:#398DD3;" d="M202.363,21.767l-79.698,81.198l6.305,17.691c2.816,7.903,12.986,10.014,18.729,3.898
		c16.855-17.949,40.803-29.159,67.371-29.159c25.518,0,48.625,10.347,65.341,27.064c0.665,0.665,1.32,1.34,1.965,2.026
		c5.777,6.139,15.965,4.104,18.794-3.837l6.304-17.693L202.363,21.767z"/>
	<path style="fill:#4D99F4;" d="M122.666,92.404v15.94c22.845-18.585,55.787-30.238,92.405-30.238
		c34.498,0,65.727,10.347,88.322,27.064c1.399,1.034,2.756,2.088,4.082,3.164v-15.93C307.475,41.371,266.104,0,215.07,0l0,0
		C164.036,0,122.666,41.371,122.666,92.404z"/>
	<path style="fill:#398DD3;" d="M122.666,170.974L122.666,170.974v-55.919l0,0c-4.851,0-8.784,3.933-8.784,8.784v38.352
		C113.882,167.041,117.814,170.974,122.666,170.974z"/>
	<path style="fill:#398DD3;" d="M307.475,170.974L307.475,170.974v-55.919l0,0c4.851,0,8.784,3.933,8.784,8.784v38.352
		C316.259,167.041,312.326,170.974,307.475,170.974z"/>
	<rect x="210.772" y="327.14" style="fill:#D8A132;" width="8.61" height="103.01"/>
	<rect x="239.215" y="351.64" style="fill:#4D99F4;" width="40" height="9.333"/>
</g>
<g>
</g>
<g>
</g>
<g>
</g>
<g>
</g>
<g>
</g>
<g>
</g>
<g>
</g>
<g>
</g>
<g>
</g>
<g>
</g>
<g>
</g>
<g>
</g>
<g>
</g>
<g>
</g>
<g>
</g>
</svg>
