# Blender3D v249 OBJ File: cube.blend
# www.blender3d.org
# mtllib cube.mtl
v 1.017742 -1.000000 -1.011285
v 1.017742 -1.000000 0.988714
v -0.982258 -1.000000 0.988714
v -0.982258 -1.000000 -1.011286
v 1.017742 1.000000 -1.011285
v 1.017741 1.000000 0.988715
v -0.982258 1.000000 0.988714
v -0.982258 1.000000 -1.011286
vt 0.349370 0.318224
vt 0.348443 0.016036
vt 0.650630 0.015109
vt 0.651557 0.317297
vt 0.984891 0.016036
vt 0.983963 0.318224
vt 0.681776 0.317297
vt 0.682703 0.015110
vt 0.317297 0.348443
vt 0.318224 0.650630
vt 0.016037 0.651557
vt 0.015110 0.349370
vt 0.983964 0.348443
vt 0.984891 0.650630
vt 0.682703 0.651557
vt 0.681776 0.349370
vt 0.348443 0.650630
vt 0.349370 0.348443
vt 0.651557 0.349370
vt 0.650630 0.651557
vt 0.318224 0.317297
vt 0.016037 0.318224
vt 0.015109 0.016037
vt 0.317297 0.015109
vn -0.000000 -1.000000 0.000000
vn 0.000000 1.000000 -0.000000
vn 1.000000 0.000000 0.000000
vn -0.000000 -0.000000 1.000000
vn -1.000000 -0.000000 -0.000000
vn 0.000000 0.000000 -1.000000
usemtl Material_wood-tex2c.tga
s off
f 1/1/1 2/2/1 3/3/1 4/4/1
f 5/5/2 8/6/2 7/7/2 6/8/2
f 1/9/3 5/10/3 6/11/3 2/12/3
f 2/13/4 6/14/4 7/15/4 3/16/4
f 3/17/5 7/18/5 8/19/5 4/20/5
f 5/21/6 1/22/6 4/23/6 8/24/6
